<?xml version="1.0" standalone="no"?>
<!DOCTYPE svg PUBLIC "-//W3C//DTD SVG 1.1//EN" "http://www.w3.org/Graphics/SVG/1.1/DTD/svg11.dtd" >
<svg xmlns="http://www.w3.org/2000/svg">
<metadata>
Created by FontPrep 20130207 at Tue Mar 15 17:36:20 2016
 By Athena
2014 published by FontShop International GmbH
</metadata>
<defs>
<font id="687a1a26a631bb1b3a8bfb835b459be9" horiz-adv-x='1024' >
  <font-face 
    font-family="SFMOMATextOffc"
    font-weight="400"
    font-stretch="normal"
    units-per-em="2048"
    panose-1="2 11 5 0 0 0 0 0 0 0"
    ascent="1618"
    descent="-430"
    x-height="1059"
    cap-height="1434"
    bbox="-1420 -451 2420 1955.02"
    underline-thickness="139"
    underline-position="-127"
    unicode-range="U+0020-FEFF"
  />
<missing-glyph horiz-adv-x="1189" 
d="M886 135v1163h-582v-1163h582zM169 1434h852v-1434h-852v1434z" />
    <glyph glyph-name=".notdef" horiz-adv-x="1189" 
d="M886 135v1163h-582v-1163h582zM169 1434h852v-1434h-852v1434z" />
    <glyph glyph-name=".null" horiz-adv-x="0" 
 />
    <glyph glyph-name="nonmarkingreturn" horiz-adv-x="477" 
 />
    <glyph glyph-name="space" unicode=" " horiz-adv-x="477" 
 />
    <glyph glyph-name="exclam" unicode="!" horiz-adv-x="491" 
d="M323 177.5q34 -32.5 34 -68.5q0 -59 -32.5 -91.5t-67.5 -32.5t-55.5 8.5t-35.5 24t-24 36t-9 43.5t9 43.5t33.5 45t69.5 24.5q44 0 78 -32.5zM309 449h-128l-20 985h169z" />
    <glyph glyph-name="quotedbl" unicode="&#x22;" horiz-adv-x="956" 
d="M392 1495v-521h-140v521h140zM710 1495v-521h-141v521h141z" />
    <glyph glyph-name="numbersign" unicode="#" horiz-adv-x="1333" 
d="M467 513h321l80 415h-322zM439 1060l72 374h131l-72 -374h323l72 374h131l-72 -374h203l-25 -132h-203l-78 -415h201l-23 -132h-204l-72 -381h-132l73 381h-323l-71 -381h-132l72 381h-204l24 132h205l80 415h-205l23 132h206z" />
    <glyph glyph-name="dollar" unicode="$" horiz-adv-x="1283" 
d="M343 1036q-2 -175 245 -232v470q-171 -25 -208 -107t-37 -131zM979 400q2 171 -261 229v-469q184 26 222.5 107t38.5 133zM718 1616v-193q221 -14 393 -138l-78 -123q-142 100 -315 115v-496l43 -7q271 -54 322.5 -172t50.5 -200q-2 -166 -116.5 -267.5t-299.5 -122.5
v-200h-129v197q-186 12 -290.5 68t-142.5 87l81 123q99 -79 200 -103t152 -28l-1 495l-38 7q-177 36 -270.5 132t-92.5 250t112.5 258t288.5 123v195h130z" />
    <glyph glyph-name="percent" unicode="%" horiz-adv-x="1732" 
d="M1158 163q60 -62 151 -62t151.5 63.5t60.5 160t-60.5 159t-151.5 62.5t-151 -61.5t-60 -160.5t60 -161zM1308 664q144 0 241.5 -97.5t97.5 -243.5t-96.5 -243t-242.5 -97t-242 96t-96 244t97 244.5t241 96.5zM519 0h-143l838 1434h143zM273 1271q-60 -62 -60 -159.5
t60 -159.5t151 -62t151.5 62.5t60.5 159t-60.5 159t-151.5 62.5t-151 -62zM666.5 1356q96.5 -96 96.5 -244t-96.5 -244.5t-242.5 -96.5t-242 96.5t-96 244.5t96 244t242 96t242.5 -96z" />
    <glyph glyph-name="ampersand" unicode="&#x26;" horiz-adv-x="1276" 
d="M347 1007q33 -55 122 -155q103 85 150.5 147t47.5 137t-49 125t-127.5 50t-127.5 -52.5t-49 -124.5t33 -127zM627 171q67 47 135 143l-194 210q-66 72 -122 130q-94 -82 -128.5 -133t-50 -93.5t-15.5 -90.5t16.5 -87.5t62.5 -82.5t138 -43q91 0 158 47zM460 -17
q-161 0 -262.5 93.5t-101.5 266.5t103.5 273.5t152.5 141.5q-105 115 -147 193.5t-42 162.5q0 156 92 246.5t236 90.5t234.5 -87t90.5 -234t-102.5 -242.5t-151.5 -136.5l282 -309l16 27q8 13 17 28l161 264l119 -65l-214 -362l305 -334h-194l-194 209q-124 -166 -224 -196
t-176 -30z" />
    <glyph glyph-name="quotesingle" unicode="'" horiz-adv-x="638" 
d="M392 1495v-521h-140v521h140z" />
    <glyph glyph-name="parenleft" unicode="(" horiz-adv-x="748" 
d="M389 122.5q104 -199.5 288 -281.5l-57 -136q-225 93 -358 327.5t-133 549t133 549t358 327.5l57 -136q-185 -83 -288.5 -282t-103.5 -458.5t104 -459z" />
    <glyph glyph-name="parenright" unicode=")" horiz-adv-x="748" 
d="M464 584q0 258 -104 458q-104 201 -288 282l57 136q225 -93 358 -327q133 -235 133 -548q0 -314 -133 -549t-358 -329l-57 136q183 82 288 282q104 201 104 459z" />
    <glyph glyph-name="asterisk" unicode="*" horiz-adv-x="831" 
d="M361 1243l-1 252h112l-2 -252l239 80l33 -106l-238 -77l149 -202l-91 -66l-146 204l-147 -204l-90 66l149 202l-239 77l34 106z" />
    <glyph glyph-name="plus" unicode="+" 
d="M481 147v329h-320v130h320v332h132v-332h324v-130h-324v-329h-132z" />
    <glyph glyph-name="comma" unicode="," horiz-adv-x="490" 
d="M364 66q0 -231 -165 -357l-56 82q84 82 106 196h-7q-70 0 -90 44t-20 66.5t9 42.5t23.5 35t34.5 24t56.5 9t72.5 -37.5t36 -104.5z" />
    <glyph glyph-name="hyphen" unicode="-" horiz-adv-x="753" 
d="M629 473h-505v135h505v-135z" />
    <glyph glyph-name="period" unicode="." horiz-adv-x="490" 
d="M323 176.5q34 -32.5 34 -68.5q0 -59 -32.5 -91.5t-67.5 -32.5t-55.5 8.5t-35.5 24t-24 36t-9 43.5t9 43.5t33.5 45t69.5 24.5q44 0 78 -32.5z" />
    <glyph glyph-name="slash" unicode="/" horiz-adv-x="926" 
d="M152 -205h-157l780 1782h157z" />
    <glyph glyph-name="zero" unicode="0" 
d="M312 1158q-90 -145 -90 -441t90 -441t278.5 -145t236 214.5t47.5 368.5t-24.5 263.5t-89.5 217.5t-211.5 108t-236.5 -145zM899 1262q133 -188 133 -548t-132 -545t-351 -185t-351.5 185t-132.5 549t133 548t350 184q218 0 351 -188z" />
    <glyph glyph-name="one" unicode="1" 
d="M529 145v1086l-372 -140v157l523 202v-1305h337v-145h-853v145h365z" />
    <glyph glyph-name="two" unicode="2" 
d="M501 1303q-175 0 -288 -165l-99 98q64 93 125 133q124 81 246 81q219 0 331 -119q111 -119 111 -314q0 -196 -178 -411l-394 -461h612v-145h-813v123l483 573q135 162 135 320q0 195 -154 264q-51 23 -117 23z" />
    <glyph glyph-name="three" unicode="3" 
d="M500 1450q196 0 314 -107q119 -107 119 -286t-127 -281q-39 -32 -88 -52q239 -89 243 -339q0 -193 -132 -298t-319 -103q-258 0 -412 163l93 108q127 -127 314 -127q128 0 213 68q84 68 84 193t-88 194t-219 69h-168v144h168q192 0 258 144q22 48 22 108q0 117 -79 186
t-207 71q-170 0 -283 -142l-97 104q137 183 391 183z" />
    <glyph glyph-name="four" unicode="4" 
d="M821 450h217v-147h-217v-303h-144v303h-602v120l472 1010h162l-462 -983h430v384h144v-384z" />
    <glyph glyph-name="five" unicode="5" 
d="M515 130q139 0 224 85q78 82 78 212q0 201 -189 264q-67 22 -160 22h-270l19 721h696v-144h-560l-14 -433h172q223 1 342 -117q120 -118 120 -315t-128 -320q-128 -122 -327 -122q-262 0 -424 192l89 110q128 -155 332 -155z" />
    <glyph glyph-name="six" unicode="6" 
d="M243 445q0 -138 86 -228t219 -90q134 0 222 90t87 228t-87 228q-88 90 -220 90q-133 0 -221 -90q-86 -90 -86 -228zM574 906q184 0 311 -132t127 -329q0 -196 -130 -330q-131 -133 -334 -132t-333 133q-129 132 -129 329q0 138 87 298l392 691h175l-333 -566
q75 38 167 38z" />
    <glyph glyph-name="seven" unicode="7" 
d="M117 1286v148h871v-125l-572 -1309h-170l568 1286h-697z" />
    <glyph glyph-name="eight" unicode="8" 
d="M553 1306q-195 0 -268 -145q-23 -47 -23 -111q0 -125 86 -194q77 -65 205 -65q200 0 270 146q23 49 23 113t-23 111q-45 95 -156 128q-54 17 -114 17zM554 654q-137 0 -229 -68q-91 -68 -92 -194q-1 -125 91 -195t230 -70q137 0 229 69q93 69 92 194q-1 124 -93 194
q-91 70 -228 70zM777 724q257 -92 257 -356q0 -82 -38 -156q-38 -76 -104 -126q-137 -106 -341 -104q-205 1 -341 108t-136 292q0 127 74 221q67 80 183 121q-223 88 -227 336q0 178 128 284t322 106q193 0 320 -105q128 -105 130 -285q0 -241 -227 -336z" />
    <glyph glyph-name="nine" unicode="9" 
d="M858 988q-1 139 -87 229q-87 90 -219 90q-133 0 -221 -90t-87 -228t87 -229q87 -89 220 -89q68 -1 124 23q115 48 161 167q22 57 22 127zM524 527q-86 0 -168 35q-164 70 -235 243q-33 84 -33 183q0 200 130 331t332 131t332 -131t132 -331q0 -143 -87 -298l-392 -690
h-176l323 554q-72 -27 -158 -27z" />
    <glyph glyph-name="colon" unicode=":" horiz-adv-x="490" 
d="M323 177.5q34 -32.5 34 -68.5q0 -59 -32.5 -91.5t-67.5 -32.5t-55.5 8.5t-35.5 24t-24 36t-9 43.5t9 43.5t33.5 45t69.5 24.5q44 0 78 -32.5zM323.5 1015.5q33.5 -33.5 33.5 -68.5q0 -60 -33.5 -92t-67.5 -32q-57 0 -90 33t-33 68t9 55t33 45t70 25q45 0 78.5 -33.5z" />
    <glyph glyph-name="semicolon" unicode=";" horiz-adv-x="490" 
d="M326 1044q33 -33 33 -68q0 -59 -32.5 -91.5t-67.5 -32.5q-60 0 -92 33.5t-32 67.5q0 35 9 55t32.5 44.5t70.5 24.5q46 0 79 -33zM242 -13q-70 0 -90 44t-20 66.5t9 42.5t23.5 35t35 24t57 9t72 -37t35.5 -128q0 -92 -49 -185.5t-136 -148.5l-55 83q99 72 124 195h-6z" />
    <glyph glyph-name="less" unicode="&#x3c;" 
d="M914 125l-713 348v137l713 347v-151l-573 -264l573 -265v-152z" />
    <glyph glyph-name="equal" unicode="=" 
d="M937 651h-776v130h776v-130zM937 301h-776v130h776v-130z" />
    <glyph glyph-name="greater" unicode="&#x3e;" 
d="M193 958l713 -348v-137l-713 -347v152l573 264l-573 265v151z" />
    <glyph glyph-name="question" unicode="?" horiz-adv-x="794" 
d="M333.5 176q34.5 -33 34.5 -69q0 -57 -33 -90t-68 -33t-55.5 8.5t-35.5 24t-24 36t-9 43.5t9 43.5t33.5 45t69.5 24.5q44 0 78.5 -33zM280 1454q201 0 329 -109.5t128 -290.5q0 -260 -157 -327t-253 -78l-8 -200h-128v337h54q234 0 281.5 100.5t47.5 160.5
q0 118 -87.5 185t-234.5 67q-58 0 -119 -7l-12 151q67 11 159 11z" />
    <glyph glyph-name="at" unicode="@" horiz-adv-x="1802" 
d="M648 512q0 -125 66.5 -205t174.5 -80t175.5 79t67.5 205t-67.5 206t-175.5 80t-174.5 -80t-66.5 -205zM1523 541q0 158 -46.5 282t-129 212.5t-196.5 137.5t-316.5 49t-378 -200t-175.5 -512t175.5 -513t444.5 -201q215 0 387 131l68 -91q-193 -159 -455 -159
q-165 0 -303 63t-292.5 237t-154.5 534t212 594.5t540 234.5t538.5 -223t210.5 -569q0 -196 -82 -322.5t-221 -126.5q-91 0 -143.5 47.5t-68.5 122.5q-39 -72 -106 -118t-152 -46t-147.5 31t-108 85.5t-71.5 129t-26 205t98 247t243 116.5q174 0 261 -161v145h116v-482
q-4 -206 109 -206q75 0 122.5 84t47.5 242z" />
    <glyph glyph-name="A" unicode="A" horiz-adv-x="1273" 
d="M355 461h556l-277 780zM1240 0h-165l-113 318h-657l-114 -318h-156l520 1436h166z" />
    <glyph glyph-name="B" unicode="B" horiz-adv-x="1278" 
d="M662 801q319 0 319 243t-321 243h-326v-486h328zM681 146q328 0 328 255q0 202 -127 228t-201 26h-347v-509h347zM899 736q272 -69 272 -357q0 -86 -66.5 -232.5t-419.5 -146.5h-507v1434h487q341 0 410 -140t69 -222q0 -266 -245 -336z" />
    <glyph glyph-name="C" unicode="C" horiz-adv-x="1369" 
d="M1137 1102q-135 196 -403 196q-82 0 -171.5 -40t-154 -115.5t-101 -183.5t-36.5 -307.5t135.5 -358t349.5 -158.5q121 0 219.5 52.5t160.5 144.5l111 -108q-124 -175 -268.5 -208t-255.5 -33t-230 52t-204.5 148.5t-133 232t-47.5 301.5t47.5 301.5t133 232t204.5 148.5
t231 52q189 0 320 -65t205 -179z" />
    <glyph glyph-name="D" unicode="D" horiz-adv-x="1440" 
d="M334 1285v-1137h307q259 0 393.5 151t134.5 419t-134.5 417.5t-393.5 149.5h-307zM641 1434q322 0 507 -190.5t185 -525.5t-184 -526.5t-508 -191.5h-463v1434h463z" />
    <glyph glyph-name="E" unicode="E" horiz-adv-x="1119" 
d="M1030 0h-852v1434h846v-147h-690v-494h648v-141h-648v-506h696v-146z" />
    <glyph glyph-name="F" unicode="F" horiz-adv-x="1077" 
d="M949 614h-615v-614h-156v1434h828v-148h-672v-530h615v-142z" />
    <glyph glyph-name="G" unicode="G" horiz-adv-x="1468" 
d="M1361 709q0 -327 -165.5 -526.5t-442.5 -199.5t-461 198t-184 532t181 536t473 202t478 -210l-103 -117q-146 174 -370 174t-360 -158.5t-136 -423t135.5 -423t338.5 -158.5t321.5 130t130.5 356h-395v145h557q2 -24 2 -57z" />
    <glyph glyph-name="H" unicode="H" horiz-adv-x="1416" 
d="M334 797h748v637h156v-1434h-156v649h-748v-649h-156v1434h156v-637z" />
    <glyph glyph-name="I" unicode="I" horiz-adv-x="512" 
d="M334 0h-156v1434h156v-1434z" />
    <glyph glyph-name="J" unicode="J" horiz-adv-x="1022" 
d="M409 134q135 0 216.5 89t81.5 254v957h155v-972q0 -228 -124 -354t-339 -126t-364 166l97 109q108 -123 277 -123z" />
    <glyph glyph-name="K" unicode="K" horiz-adv-x="1226" 
d="M334 0h-156v1434h156v-690l627 690h197l-658 -709l691 -725h-203l-654 693v-693z" />
    <glyph glyph-name="L" unicode="L" horiz-adv-x="1099" 
d="M1055 0h-877v1434h156v-1287h721v-147z" />
    <glyph glyph-name="M" unicode="M" horiz-adv-x="1757" 
d="M1651 0h-154l-145 1231l-412 -1231h-143l-402 1223l-145 -1223h-144l165 1436h213l394 -1205l401 1205h204z" />
    <glyph glyph-name="N" unicode="N" horiz-adv-x="1429" 
d="M1251 -2h-146l-771 1127l-1 -1125h-155v1436h147l772 -1135v1133h154v-1436z" />
    <glyph glyph-name="O" unicode="O" horiz-adv-x="1509" 
d="M406 1141q-136 -159 -136 -427q0 -267 136.5 -426.5t348.5 -159.5t348.5 159t136.5 427q0 267 -136 426.5t-349 159.5t-349 -159zM1402 717q0 -330 -180 -532t-467 -202t-467 202t-180 532t180 532t467 202t467 -202t180 -532z" />
    <glyph glyph-name="P" unicode="P" horiz-adv-x="1180" 
d="M334 1286v-564h308q237 0 279.5 105.5t42.5 211.5t-84 176.5t-238 70.5h-308zM334 574v-574h-156v1434h467q223 0 352 -112.5t129 -317.5t-129 -317.5t-352 -112.5h-311z" />
    <glyph glyph-name="Q" unicode="Q" horiz-adv-x="1509" 
d="M754.5 1299q-104.5 0 -193 -40t-153 -116t-101 -184t-36.5 -242t36.5 -242t101 -184t153 -116.5t193 -40.5t192.5 40.5t152.5 116.5t101 184t36.5 242t-36.5 242t-101 184t-152.5 116t-192.5 40zM108 717q0 330 179.5 532.5t467.5 202.5t467.5 -202.5t179.5 -523.5
t-156 -516l203 -239l-115 -93l-193 228q-163 -124 -386 -124q-288 0 -467.5 202.5t-179.5 532.5z" />
    <glyph glyph-name="R" unicode="R" horiz-adv-x="1230" 
d="M658 742q312 0 312 272t-312 272h-324v-544h324zM658 1434q222 0 348 -108.5t126 -309.5q0 -162 -93 -268.5t-257 -136.5l343 -611h-174l-331 601h-286v-601h-156v1434h480z" />
    <glyph glyph-name="S" unicode="S" horiz-adv-x="1226" 
d="M995 1182q-157 118 -372 118t-265.5 -95.5t-50.5 -153.5q0 -100 70 -164t226 -92l130 -23q282 -58 334 -177.5t52 -211.5q0 -186 -145.5 -293.5t-365.5 -107.5t-338.5 65t-161.5 100l92 122q110 -90 224.5 -113t182.5 -23q148 0 249 65.5t101 176.5q0 112 -76 171.5
t-228 88.5l-137 23q-179 38 -275 135t-96 267t136.5 280.5t347.5 110.5q265 0 458 -149z" />
    <glyph glyph-name="T" unicode="T" horiz-adv-x="1127" 
d="M1082 1286h-441v-1286h-156v1286h-440v148h1037v-148z" />
    <glyph glyph-name="U" unicode="U" horiz-adv-x="1372" 
d="M1211 513q0 -255 -147 -392.5t-378.5 -137.5t-378 138t-146.5 392v921h155v-914q0 -189 101 -287t314 -98t269 143.5t56 241.5v914h155v-921z" />
    <glyph glyph-name="V" unicode="V" horiz-adv-x="1283" 
d="M736 -2h-188l-513 1436h165l443 -1267l446 1267h160z" />
    <glyph glyph-name="W" unicode="W" horiz-adv-x="1924" 
d="M1495 -2h-187l-351 1208l-350 -1208h-187l-417 1436h162l350 -1248l357 1250h172l358 -1249l350 1247h159z" />
    <glyph glyph-name="X" unicode="X" horiz-adv-x="1349" 
d="M702 732l469 -732h-179l-390 608l-391 -608h-176l468 732l-448 702h179l370 -579l372 579h176z" />
    <glyph glyph-name="Y" unicode="Y" horiz-adv-x="1179" 
d="M670 0h-156v586l-505 848h181l402 -665l403 665h176l-501 -850v-584z" />
    <glyph glyph-name="Z" unicode="Z" horiz-adv-x="1231" 
d="M1125 147v-147h-982v123l785 1163h-774v148h969v-122l-785 -1165h787z" />
    <glyph glyph-name="bracketleft" unicode="[" horiz-adv-x="679" 
d="M608 -269h-430v1703h430v-137h-281v-1430h281v-136z" />
    <glyph glyph-name="backslash" unicode="\" horiz-adv-x="926" 
d="M775 -205l-780 1782h157l780 -1782h-157z" />
    <glyph glyph-name="bracketright" unicode="]" horiz-adv-x="679" 
d="M72 1434h430v-1703h-430v136h281v1430h-281v137z" />
    <glyph glyph-name="asciicircum" unicode="^" horiz-adv-x="1105" 
d="M165 740l323 694h128l325 -694h-147l-243 545l-242 -545h-144z" />
    <glyph glyph-name="underscore" unicode="_" horiz-adv-x="854" 
d="M859 -276h-864v135h864v-135z" />
    <glyph glyph-name="grave" unicode="`" horiz-adv-x="707" 
d="M166 1426h174l200 -310h-140z" />
    <glyph glyph-name="a" unicode="a" horiz-adv-x="1086" 
d="M472 117q187 0 305 171v202h-260q-195 0 -226.5 -75t-31.5 -113q0 -78 55 -131.5t158 -53.5zM516 1076q293 0 352.5 -150.5t59.5 -252.5v-673h-149v146q-135 -164 -344 -164q-153 0 -244 89t-91 230t104.5 227t294.5 86h277v43q0 211 -107 245t-171 34q-147 0 -273 -102
l-68 120q153 122 359 122z" />
    <glyph glyph-name="b" unicode="b" horiz-adv-x="1245" 
d="M420 237.5q92 -111.5 240 -111.5t239.5 112.5t91.5 291.5t-93 291t-239 112t-238.5 -111.5t-92.5 -292t92 -292zM686 1077q199 0 329 -152.5t130 -394.5t-129.5 -395t-329.5 -153q-234 0 -351 202v-184h-150v1495h151v-618q120 200 350 200z" />
    <glyph glyph-name="c" unicode="c" horiz-adv-x="1018" 
d="M939 134q-127 -152 -349 -152t-356 151.5t-134 396t134.5 396t355.5 151.5t349 -151l-95 -107q-109 113 -256 113t-240 -109.5t-93 -293t92.5 -293t242.5 -109.5q149 0 256 113z" />
    <glyph glyph-name="d" unicode="d" horiz-adv-x="1247" 
d="M586 933q-74 0 -135.5 -30t-105 -83t-67 -127.5t-23.5 -163.5t24 -163t67.5 -127.5t105 -83t135 -29.5t134 29t104.5 82.5t68.5 127.5t24.5 164.5t-24.5 164.5t-68.5 127t-104.5 82.5t-134.5 29.5zM559 -18q-200 0 -329.5 153t-129.5 395t130 394.5t329 152.5
q230 0 350 -200v618h152v-1495h-151v184q-119 -202 -351 -202z" />
    <glyph glyph-name="e" unicode="e" horiz-adv-x="1118" 
d="M356.5 846.5q-83.5 -91.5 -99.5 -245.5h608q-10 155 -91 246t-208 91q-126 0 -209.5 -91.5zM976 136q-154 -154 -382 -154t-361 148.5t-133 397.5t132.5 399t334.5 150q203 0 327 -149.5t124 -393.5q0 -28 -2 -56h-760q12 -173 105 -265.5t252 -92.5q158 0 285 125z" />
    <glyph glyph-name="f" unicode="f" horiz-adv-x="865" 
d="M609 1377q-188 0 -188 -226v-112h381v-138h-381v-901h-152v901h-219v138h219v113q0 265 120.5 318t202.5 53q146 0 260 -72l-52 -128q-85 54 -191 54z" />
    <glyph glyph-name="g" unicode="g" horiz-adv-x="1211" 
d="M345.5 259.5q90.5 -108.5 237.5 -108.5q146 0 237.5 108.5t91.5 282t-91.5 282.5t-237.5 109t-237 -109t-91 -282.5t90.5 -282zM556 7q-199 0 -327.5 147.5t-128.5 386.5t128.5 387.5t327.5 148.5q234 0 348 -205v187h149v-1004q0 -237 -137 -365.5t-355 -128.5
q-124 0 -228.5 43t-169.5 120l89 100q124 -124 292 -124t263 91t95 261v155q-114 -200 -346 -200z" />
    <glyph glyph-name="h" unicode="h" horiz-adv-x="1206" 
d="M662 1077q173 0 279.5 -105t106.5 -280v-692h-152v649q0 134 -71 209t-198 75t-208.5 -80t-81.5 -209l-1 -1v-643h-151v1495h151v-598q103 180 326 180z" />
    <glyph glyph-name="i" unicode="i" horiz-adv-x="476" 
d="M243 1504q44 0 74 -30t30 -74t-30 -74t-74 -30t-74 30t-30 74t30 74t74 30zM318 0h-150v1059h150v-1059z" />
    <glyph glyph-name="j" unicode="j" horiz-adv-x="479" 
d="M246 1504q44 0 74 -30t30 -74t-30 -74t-74 -30t-74 30t-30 74t30 74t74 30zM71 -295q99 0 99 136v1218h152v-1224q0 -200 -89.5 -237t-157.5 -37t-129 33l35 134q39 -23 90 -23z" />
    <glyph glyph-name="k" unicode="k" horiz-adv-x="1028" 
d="M336 0h-151v1495h151v-916l464 479h189l-499 -501l506 -557h-186l-474 530v-530z" />
    <glyph glyph-name="l" unicode="l" horiz-adv-x="523" 
d="M335 0h-147l-2 1495h151z" />
    <glyph glyph-name="m" unicode="m" horiz-adv-x="1882" 
d="M640 1077q124 0 214.5 -55t133.5 -155q101 210 351 210q173 0 278.5 -104t105.5 -281v-692h-150v649q0 134 -70.5 209t-193.5 75t-203 -77t-84 -200v-656h-151v649q0 204 -102.5 244t-164.5 40q-124 0 -203.5 -81t-79.5 -208l-2 -1v-643h-150v1059h148v-164
q104 182 323 182z" />
    <glyph glyph-name="n" unicode="n" horiz-adv-x="1189" 
d="M645 1077q173 0 279.5 -104.5t106.5 -280.5v-692h-151v649q0 134 -71 209t-199 75t-208.5 -80.5t-80.5 -208.5l-2 -1v-643h-150v1059h148v-165q105 183 328 183z" />
    <glyph glyph-name="o" unicode="o" horiz-adv-x="1184" 
d="M592 932q-74 0 -135.5 -29t-106.5 -81.5t-70 -126.5t-25 -165.5t25 -165.5t70 -127t106.5 -81.5t135.5 -28.5t136 28.5t107 81.5t70 127t25 165.5t-25 165.5t-70 126.5t-107 81.5t-136 29zM591.5 1077q107.5 0 198.5 -39.5t156 -111.5t101.5 -173t36.5 -223.5
t-36.5 -223.5t-101.5 -173.5t-156 -111.5t-198.5 -39t-197.5 39t-155.5 111.5t-102 173.5t-36.5 223.5t36.5 223.5t102 173t155.5 111.5t197.5 39.5z" />
    <glyph glyph-name="p" unicode="p" horiz-adv-x="1218" 
d="M393 237.5q92 -111.5 240 -111.5t240 113t92 291t-93.5 290.5t-239.5 112.5t-238.5 -111.5t-92.5 -292t92 -292zM659 1077q200 0 329.5 -152t129.5 -395.5t-129 -395.5t-330 -152q-230 0 -350 200v-609h-150v1486h149v-185q118 203 351 203z" />
    <glyph glyph-name="q" unicode="q" horiz-adv-x="1219" 
d="M586 933q-74 0 -135.5 -30t-105 -83t-67 -127.5t-23.5 -163.5t24 -163t67.5 -127.5t105 -83t135 -29.5t134 29t104.5 82.5t68.5 127.5t24.5 164.5t-24.5 164.5t-68.5 127t-104.5 82.5t-134.5 29.5zM559 -18q-200 0 -329.5 153t-129.5 395t130 394.5t329 152.5
q232 0 351 -203v185h151v-1486h-152v609q-118 -200 -350 -200z" />
    <glyph glyph-name="r" unicode="r" horiz-adv-x="829" 
d="M600 1077q100 0 166 -33l-41 -149q-66 32 -136 32q-126 0 -195 -81.5t-75 -219.5v-626h-150v1059h147v-168q93 186 284 186z" />
    <glyph glyph-name="s" unicode="s" horiz-adv-x="1011" 
d="M819 847q-131 93 -296 93t-200.5 -64.5t-35.5 -117.5q0 -114 202 -149l116 -19q306 -54 306 -288q0 -147 -115 -233t-303 -86q-235 0 -393 127l74 114q128 -104 316 -104q189 0 228 65t39 108q0 131 -208 165l-116 18q-301 50 -301 292q0 142 106.5 225.5t276.5 83.5
q221 0 372 -112z" />
    <glyph glyph-name="t" unicode="t" horiz-adv-x="791" 
d="M510 -18q-131 0 -207.5 85t-76.5 259v572h-176v140h176v292h151v-292h331v-140h-331v-567q0 -106 44 -155t119 -49t147 59l58 -121q-104 -83 -235 -83z" />
    <glyph glyph-name="u" unicode="u" horiz-adv-x="1189" 
d="M159 367v692h150v-649q0 -134 71.5 -209t199.5 -75t208.5 80.5t80.5 208.5v644h152v-1059h-149v165q-102 -183 -327 -183q-174 0 -280 104.5t-106 280.5z" />
    <glyph glyph-name="v" unicode="v" horiz-adv-x="1036" 
d="M605 -2h-173l-402 1061h159l331 -900l330 900h156z" />
    <glyph glyph-name="w" unicode="w" horiz-adv-x="1680" 
d="M1207 166l288 893h155l-354 -1059h-174l-283 880l-283 -880h-172l-354 1059h157l287 -889l287 889h159z" />
    <glyph glyph-name="x" unicode="x" horiz-adv-x="1026" 
d="M614 541l374 -541h-180l-299 425l-298 -425h-173l373 541l-362 518h180l285 -410l288 410h174z" />
    <glyph glyph-name="y" unicode="y" horiz-adv-x="1040" 
d="M371 -429h-163l246 550l-432 938h163l344 -773l334 773h161z" />
    <glyph glyph-name="z" unicode="z" horiz-adv-x="1045" 
d="M934 139v-139h-816v115l624 805h-604v139h788v-116l-618 -804h626z" />
    <glyph glyph-name="braceleft" unicode="{" horiz-adv-x="783" 
d="M654 1303q-146 0 -171 -88.5t-21 -147.5l6 -167q12 -254 -190 -317q202 -65 190 -318l-6 -167q-9 -175 69 -205t123 -30h58v-131h-69q-252 0 -293.5 142.5t-36.5 234.5l6 170q9 176 -76 206.5t-135 30.5v133q160 0 187.5 88.5t23.5 149.5l-6 170q-12 179 77 278t253 99
h69v-131h-58z" />
    <glyph glyph-name="bar" unicode="|" horiz-adv-x="643" 
d="M393 -271h-143v1705h143v-1705z" />
    <glyph glyph-name="braceright" unicode="}" horiz-adv-x="782" 
d="M128 -137q145 0 184 131q13 45 9 104l-7 167q-12 252 191 318q-203 66 -191 317l7 167q9 174 -111 221q-37 14 -82 15h-57v131h68q250 0 315 -216q20 -70 15 -161l-6 -170q-12 -234 212 -238v-133q-160 0 -201 -132q-14 -45 -11 -105l6 -170q12 -182 -75 -279
q-87 -98 -255 -98h-68v131h57z" />
    <glyph glyph-name="asciitilde" unicode="~" horiz-adv-x="1105" 
d="M956 560q-98 -124 -234 -124q-95 0 -183.5 41t-159.5 41t-146 -79l-85 84q96 124 243 124q91 0 176 -40.5t158 -40.5t146 79z" />
    <glyph glyph-name="uni00A0" unicode="&#xa0;" horiz-adv-x="477" 
 />
    <glyph glyph-name="exclamdown" unicode="&#xa1;" horiz-adv-x="491" 
d="M258 852q-84 0 -115 70q-9 20 -9 44t14 53q13 30 54 49t88 1q70 -31 68 -115q0 -35 -33 -68q-33 -34 -67 -34zM182 613h128l21 -985h-169z" />
    <glyph glyph-name="cent" unicode="&#xa2;" horiz-adv-x="1283" 
d="M395 716q0 -138 61 -230.5t167 -123.5v709q-160 -44 -194 -164.5t-34 -190.5zM753 0h-130v221q-171 30 -272 163.5t-101 332.5t101 332.5t272 161.5v223h130v-216q176 -12 287 -137l-85 -100q-87 85 -202 99v-728q119 16 204 101l83 -101q-111 -123 -287 -137v-215z" />
    <glyph glyph-name="sterling" unicode="&#xa3;" horiz-adv-x="1283" 
d="M773 1304q-195 0 -236.5 -122.5t-41.5 -206.5v-192h467v-133h-467v-508h615v-142h-934v142h167v508h-165v133h165v203q0 220 119 342t317 122q199 0 322 -153l-97 -105q-86 112 -231 112z" />
    <glyph glyph-name="currency" unicode="&#xa4;" horiz-adv-x="1283" 
d="M929 717q0 125 -82.5 212t-204.5 87t-203.5 -86t-81.5 -213q0 -126 81.5 -213t203.5 -87t204.5 87.5t82.5 212.5zM642 1134q135 0 242 -81l134 136l84 -84l-135 -137q81 -108 81 -249t-81 -254l135 -136l-84 -85l-134 136q-104 -81 -239 -81q-136 0 -244 81l-134 -136
l-83 85l135 136q-79 107 -79 249q0 141 78 253l-134 138l83 84l135 -137q105 82 240 82z" />
    <glyph glyph-name="yen" unicode="&#xa5;" horiz-adv-x="1283" 
d="M1082 327h-361v-327h-151v327h-360v120h360v203h-360v121h302l-417 663h174l376 -591l372 591h171l-412 -663h306v-121h-361v-203h361v-120z" />
    <glyph glyph-name="brokenbar" unicode="&#xa6;" horiz-adv-x="643" 
d="M393 -271h-143v710h143v-710zM393 723h-143v711h143v-711z" />
    <glyph glyph-name="section" unicode="&#xa7;" horiz-adv-x="1201" 
d="M300 618q0 -157 277 -197l116 -17q56 -11 77 -17q71 23 113.5 72t42.5 105t-38.5 117t-241.5 93l-122 18q-28 4 -71 17q-153 -52 -153 -191zM630 1314q-130 0 -214.5 -54t-84.5 -139q0 -86 69.5 -132.5t204.5 -66.5l117 -18q248 -47 299 -147t51 -168q0 -173 -161 -264
q130 -84 130 -240t-129.5 -247.5t-331.5 -91.5q-259 0 -451 143l76 117q160 -124 376 -124t265 76t49 121q0 153 -278 193l-121 20q-247 48 -294 151.5t-47 169.5q0 168 158 259q-128 88 -128 240.5t125.5 245t336.5 92.5q212 0 389 -130l-70 -115q-157 109 -336 109z" />
    <glyph glyph-name="dieresis" unicode="&#xa8;" horiz-adv-x="716" 
d="M478 1266q0 42 28 69q28 28 68 28q42 0 70 -28q28 -27 28 -69t-28 -69t-70 -27t-68 26q-28 28 -28 70zM188 1363q42 0 70 -28q28 -27 28 -69t-28 -69t-70 -27t-69 26q-27 28 -27 70t27 69q27 28 69 28z" />
    <glyph glyph-name="copyright" unicode="&#xa9;" horiz-adv-x="1726" 
d="M1098 926q-76 108 -200 108t-197 -84.5t-73 -226.5t72.5 -225t196.5 -83q125 0 202 107l91 -81q-106 -149 -292 -149t-293 118t-107 314t108 314.5t282 118.5q97 0 176.5 -41.5t127.5 -114.5zM257 724q0 -303 173.5 -499t432.5 -196q258 0 432.5 195.5t174.5 499.5
t-174 499t-432 195q-260 0 -433.5 -195.5t-173.5 -498.5zM863.5 1542q104.5 0 199 -27t176 -78.5t148 -124t113 -163t72 -198t25.5 -227.5t-25.5 -227.5t-72 -198.5t-113 -164t-148 -124t-176 -78t-199 -27t-199.5 27t-176 78t-148 124t-113.5 164t-72 198.5t-25.5 227.5
t25.5 227.5t72 198t113.5 163t148 124t176 78.5t199.5 27z" />
    <glyph glyph-name="ordfeminine" unicode="&#xaa;" horiz-adv-x="724" 
d="M322 725q109 0 181 101v117h-154q-82 0 -118.5 -31.5t-36.5 -78t33.5 -77.5t94.5 -31zM346 1326q196 0 236 -99t40 -167v-425h-117v98q-86 -110 -216 -110q-99 0 -159 56.5t-60 149.5q0 92 67.5 146.5t195.5 54.5h168v21q0 166 -169 166q-98 0 -176 -66l-51 93
q99 82 241 82z" />
    <glyph glyph-name="guillemotleft" unicode="&#xab;" horiz-adv-x="983" 
d="M839 169h-156l-186 372l186 371h156l-187 -371zM467 169h-156l-186 372l186 371h156l-186 -371z" />
    <glyph glyph-name="logicalnot" unicode="&#xac;" 
d="M937 606v-412l-131 1v281h-645v130h776z" />
    <glyph glyph-name="uni00AD" unicode="&#xad;" horiz-adv-x="753" 
d="M629 473h-505v135h505v-135z" />
    <glyph glyph-name="registered" unicode="&#xae;" horiz-adv-x="819" 
d="M428 1110q69 0 69 57t-69 57h-78v-114h78zM566 1167q0 -79 -79 -105l78 -148h-75l-67 140h-73v-140h-67v371h146q65 0 101 -31t36 -87zM692 1099q0 127 -80.5 210.5t-200.5 83.5t-202 -84t-82 -211t82 -211t202 -84q119 0 200 84.5t81 211.5zM411 1468q155 0 260 -106.5
t105 -262.5q0 -157 -105.5 -264.5t-259.5 -107.5q-155 0 -261.5 106.5t-106.5 264.5t107 264t261 106z" />
    <glyph glyph-name="macron" unicode="&#xaf;" horiz-adv-x="707" 
d="M89 1327h558v-126h-558v126z" />
    <glyph glyph-name="degree" unicode="&#xb0;" horiz-adv-x="729" 
d="M566 1132q0 89 -59 148t-144 59t-142.5 -60t-57.5 -147t57.5 -147.5t143.5 -60.5q84 0 143 59.5t59 148.5zM364.5 811q-134.5 0 -228 92.5t-93.5 228.5t93.5 228t228 92t228 -92t93.5 -228t-93.5 -228.5t-228 -92.5z" />
    <glyph glyph-name="plusminus" unicode="&#xb1;" 
d="M937 57h-776v130h776v-130zM481 299v290h-320v130h320v319h132v-319h324v-130h-324v-290h-132z" />
    <glyph glyph-name="twosuperior" unicode="&#xb2;" horiz-adv-x="614" 
d="M298 1443q106 0 171 -66t66 -156t-29 -145t-81 -111l-191 -204h321v-111h-473v94l266 294q69 76 69 161t-78 119q-25 10 -55 10q-78 0 -130 -56q-15 -16 -29 -33l-70 79q86 125 243 125z" />
    <glyph glyph-name="threesuperior" unicode="&#xb3;" horiz-adv-x="618" 
d="M47 1339q88 104 245 104t220 -128q18 -39 18 -87q0 -132 -119 -184q61 -24 98 -70t37 -107q0 -109 -77 -168t-170 -59q-168 0 -256 96l66 82q69 -69 168 -69t137 69q12 24 12 54q0 58 -46 89q-46 32 -110 30h-93v108h93q98 0 131 67q11 22 11 63t-39 73t-103 31
q-94 0 -159 -77z" />
    <glyph glyph-name="acute" unicode="&#xb4;" horiz-adv-x="855" 
d="M241 1116l199 310h174l-235 -310h-138z" />
    <glyph glyph-name="mu" unicode="&#xb5;" horiz-adv-x="1137" 
d="M304 -446h-145v1505h150v-649q0 -134 71.5 -209t199.5 -75t208.5 80.5t80.5 208.5v644h152v-1059h-149v184q-99 -202 -330 -202q-140 0 -238 70v-498z" />
    <glyph glyph-name="paragraph" unicode="&#xb6;" horiz-adv-x="1014" 
d="M652 1434h113v-1434h-113v1434zM443 744q-173 0 -270 91.5t-97 255.5q0 242 139.5 292.5t227.5 50.5h113v-1434h-113v744z" />
    <glyph glyph-name="periodcentered" unicode="&#xb7;" horiz-adv-x="676" 
d="M418 619q33 -33 33 -67q0 -58 -33 -91t-68 -33q-60 0 -92 33.5t-32 67.5q0 35 9 55t32 44t71 24q47 0 80 -33z" />
    <glyph glyph-name="cedilla" unicode="&#xb8;" horiz-adv-x="758" 
d="M327 -331h-142l101 346l135 -10z" />
    <glyph glyph-name="onesuperior" unicode="&#xb9;" horiz-adv-x="449" 
d="M313 650h-114v626l-156 -67v118l270 115v-792z" />
    <glyph glyph-name="ordmasculine" unicode="&#xba;" horiz-adv-x="784" 
d="M392 1211q-43 0 -80 -16t-63 -47t-40.5 -75t-14.5 -98t14.5 -98t40.5 -75t63 -47.5t80 -16.5t79.5 16.5t63 47.5t41.5 75t15 98t-15 98t-41.5 75t-63 47t-79.5 16zM392.5 1327q70.5 0 129.5 -25.5t101.5 -71.5t66.5 -111t24 -144t-24 -143.5t-66.5 -111t-101.5 -72
t-129.5 -25.5t-129.5 25.5t-101.5 72t-66.5 111t-24 143.5t24 144t66.5 111t101.5 71.5t129.5 25.5z" />
    <glyph glyph-name="guillemotright" unicode="&#xbb;" horiz-adv-x="983" 
d="M144 913h156l186 -371l-186 -372h-156l187 372zM516 913h156l186 -371l-186 -372h-156l186 372z" />
    <glyph glyph-name="onequarter" unicode="&#xbc;" horiz-adv-x="1414" 
d="M317 0h-131l822 1434h131zM1269 264h111v-109h-111v-155h-114v155h-336v86l247 541h125l-238 -518h202v209h114v-209zM313 650h-114v626l-156 -67v118l270 115v-792z" />
    <glyph glyph-name="onehalf" unicode="&#xbd;" horiz-adv-x="1469" 
d="M317 0h-131l822 1434h131zM1410 111v-111h-473v94l266 294q69 76 69 161t-78 119q-25 10 -55 10q-78 0 -130 -56q-15 -16 -29 -33l-70 79q84 125 242 125q106 0 172 -66q65 -66 66 -156q0 -90 -30 -145t-80 -112l-190 -203h320zM313 650h-114v626l-156 -67v118l270 115
v-792z" />
    <glyph glyph-name="threequarters" unicode="&#xbe;" horiz-adv-x="1562" 
d="M466 0h-131l821 1434h131zM1417 264h112v-109h-112v-155h-113v155h-336v86l246 541h125l-237 -518h202v209h113v-209zM47 1339q88 104 245 104t220 -128q18 -39 18 -87q0 -132 -119 -184q61 -24 98 -70t37 -107q0 -109 -77 -168t-170 -59q-168 0 -256 96l66 82
q69 -69 168 -69t137 69q12 24 12 54q0 58 -46 89q-46 32 -110 30h-93v108h93q98 0 131 67q11 22 11 63t-39 73t-103 31q-94 0 -159 -77z" />
    <glyph glyph-name="questiondown" unicode="&#xbf;" horiz-adv-x="794" 
d="M550 852q-84 0 -114 70q-9 20 -9 44q-1 24 13 53q14 30 55 49t88 1q71 -31 69 -115q0 -35 -34 -68q-34 -34 -68 -34zM515 -393q-93 0 -181 29q-88 28 -148 80q-129 109 -129 286t107 281t304 129l7 200h128v-338h-53q-233 0 -307 -152q-23 -48 -23 -108q0 -120 88 -186
q88 -65 235 -67q50 0 119 8l12 -151q-66 -11 -159 -11z" />
    <glyph glyph-name="Agrave" unicode="&#xc0;" horiz-adv-x="1273" 
d="M355 461h556l-277 780zM1240 0h-165l-113 318h-657l-114 -318h-156l520 1436h166zM389 1849h174l200 -310h-139z" />
    <glyph glyph-name="Aacute" unicode="&#xc1;" horiz-adv-x="1273" 
d="M355 461h556l-277 780zM1240 0h-165l-113 318h-657l-114 -318h-156l520 1436h166zM503 1539l199 310h175l-236 -310h-138z" />
    <glyph glyph-name="Acircumflex" unicode="&#xc2;" horiz-adv-x="1273" 
d="M355 461h556l-277 780zM1240 0h-165l-113 318h-657l-114 -318h-156l520 1436h166zM802 1540l-166 196l-166 -196h-143l222 297h174l223 -297h-144z" />
    <glyph glyph-name="Atilde" unicode="&#xc3;" horiz-adv-x="1273" 
d="M355 461h556l-277 780zM1240 0h-165l-113 318h-657l-114 -318h-156l520 1436h166zM307 1676q85 120 196 120q75 0 124 -26q51 -26 75 -39q24 -12 55 -12q64 0 119 69l90 -79q-85 -120 -207 -120q-65 1 -114 27t-74 38t-56 13q-63 0 -119 -70z" />
    <glyph glyph-name="Adieresis" unicode="&#xc4;" horiz-adv-x="1273" 
d="M355 461h556l-277 780zM1240 0h-165l-113 318h-657l-114 -318h-156l520 1436h166zM926 1688q0 -42 -28 -68q-28 -28 -70 -28t-68 27q-28 27 -28 69t28 70t68 28q42 0 70 -28t28 -70zM442 1786q42 0 69 -28q29 -28 29 -70t-28 -68q-28 -28 -70 -28t-69 27t-27 69t27 70
t69 28z" />
    <glyph glyph-name="Aring" unicode="&#xc5;" horiz-adv-x="1273" 
d="M355 461h556l-277 780zM1240 0h-165l-113 318h-657l-114 -318h-156l520 1436h166zM761 1726q0 94 -76 129q-23 10 -49 10t-48 -10q-76 -34 -76 -116q0 -51 36 -88t88 -37t88 36t37 76zM636 1525q-44 0 -84 17q-78 34 -116 114q-17 40 -17 84q-1 88 63 152t152 63
q88 0 154 -62t66 -153q0 -90 -65 -153q-64 -62 -153 -62z" />
    <glyph glyph-name="AE" unicode="&#xc6;" horiz-adv-x="1939" 
d="M998 504v761l-475 -761h475zM1850 0h-852v356h-567l-222 -356h-180l907 1434h908v-147h-690v-494h648v-141h-648v-506h696v-146z" />
    <glyph glyph-name="Ccedilla" unicode="&#xc7;" horiz-adv-x="1369" 
d="M724 1451q112 0 184 -17q141 -33 252 -125q52 -45 89 -102l-112 -105q-96 140 -261 181q-164 41 -314 -25q-182 -82 -254 -299q-36 -108 -36 -242q-1 -264 134 -422q136 -158 350 -160q122 0 220 52t160 145l111 -108q-150 -212 -422 -238l-88 -317h-146l94 317
q-242 23 -397 197q-182 203 -180 534q0 166 47 301q97 274 338 380q119 52 231 53z" />
    <glyph glyph-name="Egrave" unicode="&#xc8;" horiz-adv-x="1119" 
d="M1030 0h-852v1434h846v-147h-690v-494h648v-141h-648v-506h696v-146zM355 1849h174l200 -310h-139z" />
    <glyph glyph-name="Eacute" unicode="&#xc9;" horiz-adv-x="1119" 
d="M1030 0h-852v1434h846v-147h-690v-494h648v-141h-648v-506h696v-146zM469 1539l200 310h174l-236 -310h-138z" />
    <glyph glyph-name="Ecircumflex" unicode="&#xca;" horiz-adv-x="1119" 
d="M1030 0h-852v1434h846v-147h-690v-494h648v-141h-648v-506h696v-146zM768 1540l-166 196l-166 -196h-143l222 297h174l223 -297h-144z" />
    <glyph glyph-name="Edieresis" unicode="&#xcb;" horiz-adv-x="1119" 
d="M1030 0h-852v1434h846v-147h-690v-494h648v-141h-648v-506h696v-146zM796 1786q42 0 68 -28q28 -28 28 -70t-28 -68q-28 -28 -69 -28t-69 27t-28 69t28 70t70 28zM408 1786q42 0 70 -28t28 -70t-28 -68q-28 -28 -70 -28t-69 27t-27 69t27 70t69 28z" />
    <glyph glyph-name="Igrave" unicode="&#xcc;" horiz-adv-x="512" 
d="M334 0h-156v1434h156v-1434zM9 1849h174l200 -310h-139z" />
    <glyph glyph-name="Iacute" unicode="&#xcd;" horiz-adv-x="512" 
d="M334 0h-156v1434h156v-1434zM123 1539l200 310h174l-236 -310h-138z" />
    <glyph glyph-name="Icircumflex" unicode="&#xce;" horiz-adv-x="512" 
d="M334 0h-156v1434h156v-1434zM422 1540l-166 196l-166 -196h-143l222 297h174l223 -297h-144z" />
    <glyph glyph-name="Idieresis" unicode="&#xcf;" horiz-adv-x="512" 
d="M334 0h-156v1434h156v-1434zM450 1786q42 0 68 -28q28 -28 28 -70t-28 -68q-28 -28 -69 -28t-69 27t-28 69t28 70t70 28zM62 1786q42 0 70 -28t28 -70t-28 -68q-28 -28 -70 -28t-69 27t-27 69t27 70t69 28z" />
    <glyph glyph-name="Eth" unicode="&#xd0;" horiz-adv-x="1592" 
d="M846 652h-361v-504h308q258 0 393 151.5t135 418.5t-135 417t-393 150h-308v-492h361v-141zM793 1434q320 0 506 -190t186 -526t-185 -527t-507 -191h-463v652h-224v141h224v641h463z" />
    <glyph glyph-name="Ntilde" unicode="&#xd1;" horiz-adv-x="1429" 
d="M1251 -2h-146l-771 1127l-1 -1125h-155v1436h147l772 -1135v1133h154v-1436zM387 1676q85 120 196 120q75 0 124 -26q51 -26 75 -39q24 -12 55 -12q65 0 118 69l91 -79q-85 -120 -207 -120q-65 1 -114 27t-74 38t-56 13q-65 0 -119 -70z" />
    <glyph glyph-name="Ograve" unicode="&#xd2;" horiz-adv-x="1509" 
d="M755 1300q-213 0 -348 -158t-136 -425t136 -428t348 -161q212 0 348 160q137 160 137 428t-136 426t-349 158zM288 1250q180 201 466 201q285 0 467 -201q181 -202 181 -533t-181 -533q-181 -203 -467 -202t-467 203t-180 532t181 533zM508 1849h174l200 -310h-140z" />
    <glyph glyph-name="Oacute" unicode="&#xd3;" horiz-adv-x="1509" 
d="M755 1300q-213 0 -348 -158t-136 -425t136 -428t348 -161q212 0 348 160q137 160 137 428t-136 426t-349 158zM288 1250q180 201 466 201q285 0 467 -201q181 -202 181 -533t-181 -533q-181 -203 -467 -202t-467 203t-180 532t181 533zM622 1539l199 310h174l-235 -310
h-138z" />
    <glyph glyph-name="Ocircumflex" unicode="&#xd4;" horiz-adv-x="1509" 
d="M755 1300q-213 0 -348 -158t-136 -425t136 -428t348 -161q212 0 348 160q137 160 137 428t-136 426t-349 158zM288 1250q180 201 466 201q285 0 467 -201q181 -202 181 -533t-181 -533q-181 -203 -467 -202t-467 203t-180 532t181 533zM921 1540l-166 196l-166 -196h-144
l223 297h174l223 -297h-144z" />
    <glyph glyph-name="Otilde" unicode="&#xd5;" horiz-adv-x="1509" 
d="M755 1300q-213 0 -348 -158t-136 -425t136 -428t348 -161q212 0 348 160q137 160 137 428t-136 426t-349 158zM288 1250q180 201 466 201q285 0 467 -201q181 -202 181 -533t-181 -533q-181 -203 -467 -202t-467 203t-180 532t181 533zM427 1676q85 120 196 120
q75 0 124 -26q51 -26 75 -39q24 -12 55 -12q65 0 118 69l90 -79q-85 -120 -206 -120q-65 1 -114 27t-74 38t-56 13q-65 0 -119 -70z" />
    <glyph glyph-name="Odieresis" unicode="&#xd6;" horiz-adv-x="1509" 
d="M755 1300q-213 0 -348 -158t-136 -425t136 -428t348 -161q212 0 348 160q137 160 137 428t-136 426t-349 158zM288 1250q180 201 466 201q285 0 467 -201q181 -202 181 -533t-181 -533q-181 -203 -467 -202t-467 203t-180 532t181 533zM948 1592q-42 0 -70 27t-27 69
q-1 42 27 70t70 28t69 -28t27 -70t-27 -69t-69 -27zM560 1786q42 0 70 -28t28 -70t-28 -68q-28 -28 -70 -28t-68 27q-27 27 -27 69t27 70q26 28 68 28z" />
    <glyph glyph-name="multiply" unicode="&#xd7;" 
d="M193 267l265 274l-267 274l92 93l266 -274l268 275l89 -91l-268 -275l269 -277l-91 -93l-269 276l-265 -273z" />
    <glyph glyph-name="Oslash" unicode="&#xd8;" horiz-adv-x="1509" 
d="M755 1300q-213 0 -349 -159t-136 -424q0 -219 97 -375l690 846q-124 112 -302 112zM1240 717q0 218 -97 372l-692 -847q126 -114 304 -114q212 0 348.5 159.5t136.5 429.5zM262 214q-154 198 -154 516t180 519.5t467 201.5q233 0 402 -140l121 147l103 -78l-133 -162
q154 -198 154 -515t-180 -518.5t-467 -201.5q-237 0 -403 139l-122 -150l-103 77z" />
    <glyph glyph-name="Ugrave" unicode="&#xd9;" horiz-adv-x="1372" 
d="M1211 513q0 -251 -147 -391q-147 -139 -378 -139q-232 0 -378 138q-147 138 -147 392v921h155v-914q0 -189 101 -287t269 -98q256 0 342 214q28 73 28 171v914h155v-921zM439 1849h174l200 -310h-139z" />
    <glyph glyph-name="Uacute" unicode="&#xda;" horiz-adv-x="1372" 
d="M1211 513q0 -251 -147 -391q-147 -139 -378 -139q-232 0 -378 138q-147 138 -147 392v921h155v-914q0 -189 101 -287t269 -98q256 0 342 214q28 73 28 171v914h155v-921zM553 1539l200 310h174l-236 -310h-138z" />
    <glyph glyph-name="Ucircumflex" unicode="&#xdb;" horiz-adv-x="1372" 
d="M1211 513q0 -251 -147 -391q-147 -139 -378 -139q-232 0 -378 138q-147 138 -147 392v921h155v-914q0 -189 101 -287t269 -98q256 0 342 214q28 73 28 171v914h155v-921zM852 1540l-166 196l-166 -196h-143l222 297h174l223 -297h-144z" />
    <glyph glyph-name="Udieresis" unicode="&#xdc;" horiz-adv-x="1372" 
d="M1211 513q0 -251 -147 -391q-147 -139 -378 -139q-232 0 -378 138q-147 138 -147 392v921h155v-914q0 -189 101 -287t269 -98q256 0 342 214q28 73 28 171v914h155v-921zM880 1786q42 0 68 -28q28 -28 28 -70t-28 -68q-28 -28 -69 -28t-69 27t-28 69t28 70t70 28z
M492 1786q42 0 70 -28t28 -70t-28 -68q-28 -28 -70 -28t-69 27t-27 69t27 70t69 28z" />
    <glyph glyph-name="Yacute" unicode="&#xdd;" horiz-adv-x="1179" 
d="M670 0h-156v586l-505 848h181l402 -665l403 665h176l-501 -850v-584zM460 1539l199 310h175l-236 -310h-138z" />
    <glyph glyph-name="Thorn" unicode="&#xde;" horiz-adv-x="1180" 
d="M334 1013v-564h308q237 0 279.5 105t42.5 210.5t-83.5 177t-238.5 71.5h-308zM334 1160h311q225 0 353 -112.5t128 -317t-128 -316.5t-353 -112h-311v-302h-156v1434h156v-274z" />
    <glyph glyph-name="germandbls" unicode="&#xdf;" horiz-adv-x="1160" 
d="M634 123q132 0 204 73t72 208t-79 206.5t-214 71.5h-60v137h39q191 0 234 98t43 169q0 134 -77 205.5t-200 71.5q-124 0 -198 -80t-74 -219v-1064h-147v1073q0 189 109.5 309.5t304.5 120.5q196 0 314.5 -111t118.5 -296t-81.5 -252.5t-125.5 -85.5q102 -28 172.5 -127.5
t70.5 -214.5q0 -208 -109 -320.5t-278 -112.5q-123 0 -213 43l26 135q76 -38 148 -38z" />
    <glyph glyph-name="agrave" unicode="&#xe0;" horiz-adv-x="1086" 
d="M777 490h-260q-197 0 -244 -115q-14 -35 -14 -73q0 -80 55 -132q55 -53 158 -53q187 0 305 171v202zM776 657q0 279 -285 279q-139 0 -266 -102l-68 120q153 122 359 122q296 0 382 -225q30 -76 30 -178v-673h-149v146q-95 -116 -231 -151t-258 13q-121 47 -167 165
q-23 58 -23 128q0 140 102 226q108 87 297 87h277v43zM269 1512h174l200 -310h-139z" />
    <glyph glyph-name="aacute" unicode="&#xe1;" horiz-adv-x="1086" 
d="M777 490h-260q-197 0 -244 -115q-14 -35 -14 -73q0 -80 55 -132q55 -53 158 -53q187 0 305 171v202zM776 657q0 279 -285 279q-139 0 -266 -102l-68 120q153 122 359 122q296 0 382 -225q30 -76 30 -178v-673h-149v146q-95 -116 -231 -151t-258 13q-121 47 -167 165
q-23 58 -23 128q0 140 102 226q108 87 297 87h277v43zM410 1202l199 310h174l-235 -310h-138z" />
    <glyph glyph-name="acircumflex" unicode="&#xe2;" horiz-adv-x="1086" 
d="M777 490h-260q-197 0 -244 -115q-14 -35 -14 -73q0 -80 55 -132q55 -53 158 -53q187 0 305 171v202zM776 657q0 279 -285 279q-139 0 -266 -102l-68 120q153 122 359 122q296 0 382 -225q30 -76 30 -178v-673h-149v146q-95 -116 -231 -151t-258 13q-121 47 -167 165
q-23 58 -23 128q0 140 102 226q108 87 297 87h277v43zM696 1203l-166 196l-165 -196h-144l222 297h174l224 -297h-145z" />
    <glyph glyph-name="atilde" unicode="&#xe3;" horiz-adv-x="1086" 
d="M777 490h-260q-197 0 -244 -115q-14 -35 -14 -73q0 -80 55 -132q55 -53 158 -53q187 0 305 171v202zM776 657q0 279 -285 279q-139 0 -266 -102l-68 120q153 122 359 122q296 0 382 -225q30 -76 30 -178v-673h-149v146q-95 -116 -231 -151t-258 13q-121 47 -167 165
q-23 58 -23 128q0 140 102 226q108 87 297 87h277v43zM211 1339q85 120 196 120q76 -1 125 -27q48 -26 73 -38t55 -12q66 0 119 69l90 -79q-83 -118 -206 -120q-65 0 -114 26t-74 40q-25 12 -56 12q-64 0 -119 -69z" />
    <glyph glyph-name="adieresis" unicode="&#xe4;" horiz-adv-x="1086" 
d="M777 490h-260q-197 0 -244 -115q-14 -35 -14 -73q0 -80 55 -132q55 -53 158 -53q187 0 305 171v202zM776 657q0 279 -285 279q-139 0 -266 -102l-68 120q153 122 359 122q296 0 382 -225q30 -76 30 -178v-673h-149v146q-95 -116 -231 -151t-258 13q-121 47 -167 165
q-23 58 -23 128q0 140 102 226q108 87 297 87h277v43zM724 1449q42 0 69 -28q27 -27 27 -69t-28 -69t-68 -27q-42 0 -70 26q-28 28 -28 70t28 69q28 28 70 28zM336 1449q42 0 70 -28q28 -27 28 -69t-28 -69t-70 -27t-68 26q-27 28 -27 70t27 69q26 28 68 28z" />
    <glyph glyph-name="aring" unicode="&#xe5;" horiz-adv-x="1086" 
d="M777 490h-260q-197 0 -244 -115q-14 -35 -14 -73q0 -80 55 -132q55 -53 158 -53q187 0 305 171v202zM776 657q0 279 -285 279q-139 0 -266 -102l-68 120q153 122 359 122q296 0 382 -225q30 -76 30 -178v-673h-149v146q-95 -116 -231 -151t-258 13q-121 47 -167 165
q-23 58 -23 128q0 140 102 226q108 87 297 87h277v43zM579 1518q-23 10 -62 10t-76 -37q-57 -59 -25 -138q31 -76 126 -76q38 0 77 37q38 37 36 89q0 82 -76 115zM530 1188q-88 0 -151 62q-64 62 -65 151q-2 88 62 152q64 65 153 65t154 -62q64 -62 65 -152t-64 -153
q-66 -63 -154 -63z" />
    <glyph glyph-name="ae" unicode="&#xe6;" horiz-adv-x="1730" 
d="M995.5 817.5q-79.5 -86.5 -95.5 -236.5h581q-8 148 -86 235.5t-199 87.5t-200.5 -86.5zM495 114q71 0 152 46.5t132 135.5q-25 75 -30 166h-247q-188 0 -218 -68.5t-30 -105.5t14.5 -69t43 -55.5t70.5 -36.5t113 -13zM750 636q0 267 -277 267q-133 0 -250 -93l-68 113
q144 116 346 116q264 0 344 -202q55 96 148 149.5t197 53.5q201 0 320.5 -143.5t119.5 -381.5q0 -28 -2 -54h-729q12 -166 100 -255t239 -89q152 0 276 120l75 -106q-148 -148 -375 -148q-254 -2 -383 200q-140 -200 -377 -200q-162 0 -258 84.5t-96 219t100 215.5t283 81
h267v53z" />
    <glyph glyph-name="ccedilla" unicode="&#xe7;" horiz-adv-x="1018" 
d="M235 133q-133 150 -134 395q-1 246 134 398q135 151 356 151q222 0 348 -151l-95 -107q-109 113 -257 113t-240 -109t-92 -293q0 -185 94 -294t242 -109t255 113l93 -106q-110 -131 -295 -150l-88 -315h-141l92 319q-166 24 -272 145z" />
    <glyph glyph-name="egrave" unicode="&#xe8;" horiz-adv-x="1118" 
d="M568 938q-126 0 -211 -92q-84 -92 -100 -245h608q-10 152 -91 245q-80 92 -206 92zM585 -18q-219 0 -352 148t-133 397t132 399q132 151 336 151t327 -149t123 -394l-2 -56h-760q12 -174 106 -267t234 -91q173 0 302 125l78 -109q-158 -158 -391 -154zM312 1511h174
l200 -310h-139z" />
    <glyph glyph-name="eacute" unicode="&#xe9;" horiz-adv-x="1118" 
d="M568 938q-126 0 -211 -92q-84 -92 -100 -245h608q-10 152 -91 245q-80 92 -206 92zM585 -18q-219 0 -352 148t-133 397t132 399q132 151 336 151t327 -149t123 -394l-2 -56h-760q12 -174 106 -267t234 -91q173 0 302 125l78 -109q-158 -158 -391 -154zM453 1201l199 310
h174l-235 -310h-138z" />
    <glyph glyph-name="ecircumflex" unicode="&#xea;" horiz-adv-x="1118" 
d="M568 938q-126 0 -211 -92q-84 -92 -100 -245h608q-10 152 -91 245q-80 92 -206 92zM585 -18q-219 0 -352 148t-133 397t132 399q132 151 336 151t327 -149t123 -394l-2 -56h-760q12 -174 106 -267t234 -91q173 0 302 125l78 -109q-158 -158 -391 -154zM739 1202l-166 196
l-165 -196h-144l222 297h174l224 -297h-145z" />
    <glyph glyph-name="edieresis" unicode="&#xeb;" horiz-adv-x="1118" 
d="M568 938q-126 0 -211 -92q-84 -92 -100 -245h608q-10 152 -91 245q-80 92 -206 92zM585 -18q-219 0 -352 148t-133 397t132 399q132 151 336 151t327 -149t123 -394l-2 -56h-760q12 -174 106 -267t234 -91q173 0 302 125l78 -109q-158 -158 -391 -154zM766 1448
q42 0 70 -28t28 -70t-28 -68q-28 -28 -70 -28t-69 28t-27 68q0 42 27 70t69 28zM380 1448q42 0 69 -28q28 -28 28 -70t-28 -68q-27 -28 -69 -28t-69 28t-27 68q0 42 27 70t69 28z" />
    <glyph glyph-name="igrave" unicode="&#xec;" horiz-adv-x="490" 
d="M321 0h-151v1059h151v-1059zM-15 1512h174l199 -310h-139z" />
    <glyph glyph-name="iacute" unicode="&#xed;" horiz-adv-x="490" 
d="M321 0h-151v1059h151v-1059zM125 1202l200 310h174l-236 -310h-138z" />
    <glyph glyph-name="icircumflex" unicode="&#xee;" horiz-adv-x="490" 
d="M321 0h-151v1059h151v-1059zM412 1203l-166 196l-166 -196h-143l222 297h174l223 -297h-144z" />
    <glyph glyph-name="idieresis" unicode="&#xef;" horiz-adv-x="490" 
d="M321 0h-151v1059h151v-1059zM342 1352q0 42 28 69q28 28 68 28q42 0 70 -28q28 -27 28 -69t-28 -69t-70 -27t-68 26q-28 28 -28 70zM52 1449q42 0 69 -28q29 -27 29 -69t-28 -69t-70 -27t-69 26q-27 28 -27 70t27 69q27 28 69 28z" />
    <glyph glyph-name="eth" unicode="&#xf0;" horiz-adv-x="1139" 
d="M340.5 773.5q-90.5 -105.5 -90.5 -273.5t90.5 -272.5t231.5 -104.5t232 104.5t91 272.5q0 167 -91 273t-232 106t-231.5 -105.5zM1039 534v-16q0 -233 -131.5 -384t-337 -151t-338 146t-132.5 369t125.5 371t304.5 148t295 -131q-78 170 -233 313l-248 -139l-50 87
l216 121q-90 70 -198 129l76 107q138 -71 248 -167l234 131l51 -87l-208 -116q227 -236 276.5 -440.5t49.5 -290.5z" />
    <glyph glyph-name="ntilde" unicode="&#xf1;" horiz-adv-x="1189" 
d="M645 1077q173 0 279 -104q107 -104 107 -281v-692h-151v649q0 134 -72 209t-197 75q-126 -1 -208 -81t-82 -208l-2 -1v-643h-150v1059h148v-165q105 183 328 183zM288 1339q85 120 196 120q76 -1 125 -27q48 -26 73 -38t55 -12q66 0 119 69l90 -79q-83 -118 -207 -120
q-64 0 -113 26t-74 40q-25 12 -56 12q-64 0 -119 -69z" />
    <glyph glyph-name="ograve" unicode="&#xf2;" horiz-adv-x="1184" 
d="M350 822q-95 -112 -95 -292q0 -181 94 -292t243 -111q148 0 243 110q95 113 95 293q0 181 -94 291q-94 111 -242 111q-147 0 -244 -110zM594 1077q217 0 355 -153q137 -153 136 -396t-138 -394q-137 -152 -355 -152t-354 150t-137 396t138 398q138 151 355 151zM331 1510
h174l200 -310h-140z" />
    <glyph glyph-name="oacute" unicode="&#xf3;" horiz-adv-x="1184" 
d="M350 822q-95 -112 -95 -292q0 -181 94 -292t243 -111q148 0 243 110q95 113 95 293q0 181 -94 291q-94 111 -242 111q-147 0 -244 -110zM594 1077q217 0 355 -153q137 -153 136 -396t-138 -394q-137 -152 -355 -152t-354 150t-137 396t138 398q138 151 355 151zM471 1200
l200 310h174l-236 -310h-138z" />
    <glyph glyph-name="ocircumflex" unicode="&#xf4;" horiz-adv-x="1184" 
d="M350 822q-95 -112 -95 -292q0 -181 94 -292t243 -111q148 0 243 110q95 113 95 293q0 181 -94 291q-94 111 -242 111q-147 0 -244 -110zM594 1077q217 0 355 -153q137 -153 136 -396t-138 -394q-137 -152 -355 -152t-354 150t-137 396t138 398q138 151 355 151zM758 1201
l-166 196l-166 -196h-143l222 297h174l223 -297h-144z" />
    <glyph glyph-name="otilde" unicode="&#xf5;" horiz-adv-x="1184" 
d="M350 822q-95 -112 -95 -292q0 -181 94 -292t243 -111q148 0 243 110q95 113 95 293q0 181 -94 291q-94 111 -242 111q-147 0 -244 -110zM594 1077q217 0 355 -153q137 -153 136 -396t-138 -394q-137 -152 -355 -152t-354 150t-137 396t138 398q138 151 355 151zM480 1328
q-63 0 -119 -70l-89 79q85 120 207 120q66 -1 115 -27q48 -26 73 -38t55 -12q64 0 119 69l90 -79q-85 -120 -207 -120q-62 0 -112 26q-52 26 -76 40q-24 12 -56 12z" />
    <glyph glyph-name="odieresis" unicode="&#xf6;" horiz-adv-x="1184" 
d="M350 822q-95 -112 -95 -292q0 -181 94 -292t243 -111q148 0 243 110q95 113 95 293q0 181 -94 291q-94 111 -242 111q-147 0 -244 -110zM594 1077q217 0 355 -153q137 -153 136 -396t-138 -394q-137 -152 -355 -152t-354 150t-137 396t138 398q138 151 355 151zM688 1350
q0 42 28 69q28 28 68 28q42 0 70 -28q28 -27 28 -69t-28 -69t-70 -27t-68 26q-28 28 -28 70zM398 1447q42 0 69 -28q29 -27 29 -69t-28 -69t-70 -27t-69 26q-27 28 -27 70t27 69q27 28 69 28z" />
    <glyph glyph-name="divide" unicode="&#xf7;" 
d="M548.5 331q19.5 0 37 -7.5t30.5 -20t20.5 -30t7.5 -47t-29 -57t-67 -27.5t-65.5 28t-27.5 57t7.5 46.5t20.5 30t29.5 20t36 7.5zM548.5 941q19.5 0 37 -7.5t30.5 -20.5t20.5 -30.5t7.5 -46t-28 -56.5t-67 -28t-66.5 27.5t-27.5 56.5t7.5 46.5t20.5 30.5t29.5 20.5t36 7.5
zM942 476h-785v131h785v-131z" />
    <glyph glyph-name="oslash" unicode="&#xf8;" horiz-adv-x="1184" 
d="M255 529q0 -135 58 -240l471 579q-85 64 -175 64q-164 0 -259 -110.5t-95 -292.5zM592 127q150 0 244 111t94 275t-69 271l-473 -585q86 -72 204 -72zM213 164q-113 149 -113 379q0 231 138 382.5t354 151.5q163 0 287 -91l95 117l92 -67l-104 -129q122 -151 122 -386
t-136.5 -387t-355.5 -152q-175 0 -299 100l-96 -119l-93 67z" />
    <glyph glyph-name="ugrave" unicode="&#xf9;" horiz-adv-x="1189" 
d="M159 367v692h150v-649q0 -134 72 -209q71 -75 199 -75t208 80t81 209v644h152v-1059h-149v165q-102 -183 -327 -183q-173 0 -279 104q-107 105 -107 281zM329 1512h174l199 -310h-139z" />
    <glyph glyph-name="uacute" unicode="&#xfa;" horiz-adv-x="1189" 
d="M159 367v692h150v-649q0 -134 72 -209q71 -75 199 -75t208 80t81 209v644h152v-1059h-149v165q-102 -183 -327 -183q-173 0 -279 104q-107 105 -107 281zM469 1202l200 310h174l-236 -310h-138z" />
    <glyph glyph-name="ucircumflex" unicode="&#xfb;" horiz-adv-x="1189" 
d="M159 367v692h150v-649q0 -134 72 -209q71 -75 199 -75t208 80t81 209v644h152v-1059h-149v165q-102 -183 -327 -183q-173 0 -279 104q-107 105 -107 281zM756 1203l-166 196l-166 -196h-143l222 297h174l223 -297h-144z" />
    <glyph glyph-name="udieresis" unicode="&#xfc;" horiz-adv-x="1189" 
d="M159 367v692h150v-649q0 -134 72 -209q71 -75 199 -75t208 80t81 209v644h152v-1059h-149v165q-102 -183 -327 -183q-173 0 -279 104q-107 105 -107 281zM686 1352q0 42 28 69q28 28 68 28q42 0 70 -28q28 -27 28 -69t-28 -69t-70 -27t-68 26q-28 28 -28 70zM396 1449
q42 0 69 -28q29 -27 29 -69t-28 -69t-70 -27t-69 26q-27 28 -27 70t27 69q27 28 69 28z" />
    <glyph glyph-name="yacute" unicode="&#xfd;" horiz-adv-x="1040" 
d="M371 -429h-163l246 550l-432 938h163l344 -773l334 773h161zM416 1202l199 310h175l-236 -310h-138z" />
    <glyph glyph-name="thorn" unicode="&#xfe;" horiz-adv-x="1210" 
d="M413 230.5q88 -107.5 229 -107.5t228.5 108.5t87.5 280t-87.5 280t-228.5 108.5t-229 -107.5t-88 -281t88 -281zM669 1040q192 0 316.5 -147.5t124.5 -381.5t-125 -381t-316 -147q-224 0 -336 192v-587h-147v1899h146v-642q114 195 337 195z" />
    <glyph glyph-name="ydieresis" unicode="&#xff;" horiz-adv-x="1040" 
d="M371 -429h-163l246 550l-432 938h163l344 -773l334 773h161zM730 1449q42 0 69 -28q27 -27 27 -69t-28 -69t-68 -27q-42 0 -70 26q-28 28 -28 70t28 69q28 28 70 28zM342 1449q42 0 70 -28q28 -27 28 -69t-28 -69t-70 -27t-68 26q-27 28 -27 70t27 69q26 28 68 28z" />
    <glyph glyph-name="Amacron" unicode="&#x100;" horiz-adv-x="1273" 
d="M355 461h556l-277 780zM1240 0h-165l-113 318h-657l-114 -318h-156l520 1436h166zM357 1750h557v-126h-557v126z" />
    <glyph glyph-name="amacron" unicode="&#x101;" horiz-adv-x="1086" 
d="M777 490h-260q-197 0 -244 -115q-14 -35 -14 -73q0 -80 55 -132q55 -53 158 -53q187 0 305 171v202zM776 657q0 279 -285 279q-139 0 -266 -102l-68 120q153 122 359 122q296 0 382 -225q30 -76 30 -178v-673h-149v146q-95 -116 -231 -151t-258 13q-121 47 -167 165
q-23 58 -23 128q0 140 102 226q108 87 297 87h277v43zM252 1413h557v-126h-557v126z" />
    <glyph glyph-name="Abreve" unicode="&#x102;" horiz-adv-x="1273" 
d="M355 461h556l-277 780zM1240 0h-165l-113 318h-657l-114 -318h-156l520 1436h166zM636 1667q153 0 200 193l114 -27q-30 -145 -110 -220t-204 -75q-122 0 -203 75t-111 220l114 27q47 -193 200 -193z" />
    <glyph glyph-name="abreve" unicode="&#x103;" horiz-adv-x="1086" 
d="M777 490h-260q-197 0 -244 -115q-14 -35 -14 -73q0 -80 55 -132q55 -53 158 -53q187 0 305 171v202zM776 657q0 279 -285 279q-139 0 -266 -102l-68 120q153 122 359 122q296 0 382 -225q30 -76 30 -178v-673h-149v146q-95 -116 -231 -151t-258 13q-121 47 -167 165
q-23 58 -23 128q0 140 102 226q108 87 297 87h277v43zM531 1330q154 0 199 193l115 -27q-30 -145 -111 -220q-82 -75 -204 -75t-203 75t-111 220l115 27q46 -193 200 -193z" />
    <glyph glyph-name="Aogonek" unicode="&#x104;" horiz-adv-x="1273" 
d="M355 461h556l-277 780zM1005 -216q0 -82 92 -82q46 0 92 50l74 -91q-78 -85 -189 -85q-140 0 -188 106q-57 126 62 242q38 37 72 58t51 31l-109 305h-657l-114 -318h-156l520 1436h166l519 -1436h-52q-183 -111 -183 -216z" />
    <glyph glyph-name="aogonek" unicode="&#x105;" horiz-adv-x="1086" 
d="M777 490h-260q-197 0 -244 -115q-14 -35 -14 -73q0 -80 55 -132q55 -53 158 -53q187 0 305 171v202zM776 657q0 279 -285 279q-139 0 -266 -102l-68 120q153 122 359 122q296 0 382 -225q30 -76 30 -178v-673h-27q-183 -111 -183 -216q0 -82 93 -82q47 0 91 50l74 -91
q-78 -85 -189 -85q-140 0 -188 106q-15 33 -15 78q0 129 169 234l26 16v136q-95 -116 -231 -151t-258 13q-121 47 -167 165q-23 58 -23 128q0 140 102 226q108 87 297 87h277v43z" />
    <glyph glyph-name="Cacute" unicode="&#x106;" horiz-adv-x="1369" 
d="M724 1451q112 0 184 -17q141 -33 252 -125q52 -45 89 -102l-112 -105q-96 140 -261 181q-164 41 -314 -25q-182 -82 -254 -299q-36 -108 -36 -242q-1 -264 134 -422q136 -158 350 -160q122 0 220 52t160 145l111 -108q-123 -174 -341 -225q-72 -17 -151 -16
q-288 0 -468 202q-181 202 -179 532q0 166 47 301q97 274 338 380q119 52 231 53zM617 1539l200 310h174l-235 -310h-139z" />
    <glyph glyph-name="cacute" unicode="&#x107;" horiz-adv-x="1018" 
d="M939 134q-127 -152 -349 -152t-355 150t-134 396t134 398q135 151 356 151q222 0 348 -151l-95 -107q-109 113 -257 113t-240 -109t-92 -293q0 -185 94 -294t242 -109t255 113zM461 1201l199 310h175l-236 -310h-138z" />
    <glyph glyph-name="Ccircumflex" unicode="&#x108;" horiz-adv-x="1369" 
d="M724 1451q112 0 184 -17q141 -33 252 -125q52 -45 89 -102l-112 -105q-96 140 -261 181q-164 41 -314 -25q-182 -82 -254 -299q-36 -108 -36 -242q-1 -264 134 -422q136 -158 350 -160q122 0 220 52t160 145l111 -108q-123 -174 -341 -225q-72 -17 -151 -16
q-288 0 -468 202q-181 202 -179 532q0 166 47 301q97 274 338 380q119 52 231 53zM916 1540l-165 196l-166 -196h-144l223 297h174l223 -297h-145z" />
    <glyph glyph-name="ccircumflex" unicode="&#x109;" horiz-adv-x="1018" 
d="M939 134q-127 -152 -349 -152t-355 150t-134 396t134 398q135 151 356 151q222 0 348 -151l-95 -107q-109 113 -257 113t-240 -109t-92 -293q0 -185 94 -294t242 -109t255 113zM748 1202l-166 196l-166 -196h-144l223 297h174l223 -297h-144z" />
    <glyph glyph-name="Cdotaccent" unicode="&#x10a;" horiz-adv-x="1369" 
d="M724 1451q112 0 184 -17q141 -33 252 -125q52 -45 89 -102l-112 -105q-96 140 -261 181q-164 41 -314 -25q-182 -82 -254 -299q-36 -108 -36 -242q-1 -264 134 -422q136 -158 350 -160q122 0 220 52t160 145l111 -108q-123 -174 -341 -225q-72 -17 -151 -16
q-288 0 -468 202q-181 202 -179 532q0 166 47 301q97 274 338 380q119 52 231 53zM770 1813q44 1 73 -29t29 -74t-29 -72t-73 -28t-72 28t-29 72q1 44 29 74t72 29z" />
    <glyph glyph-name="cdotaccent" unicode="&#x10b;" horiz-adv-x="1018" 
d="M939 134q-127 -152 -349 -152t-355 150t-134 396t134 398q135 151 356 151q222 0 348 -151l-95 -107q-109 113 -257 113t-240 -109t-92 -293q0 -185 94 -294t242 -109t255 113zM582 1502q43 0 71 -28t28 -72q0 -42 -28 -70t-71 -28t-72 28q-28 28 -28 70t28 72
q29 28 72 28z" />
    <glyph glyph-name="Ccaron" unicode="&#x10c;" horiz-adv-x="1369" 
d="M724 1451q112 0 184 -17q141 -33 252 -125q52 -45 89 -102l-112 -105q-96 140 -261 181q-164 41 -314 -25q-182 -82 -254 -299q-36 -108 -36 -242q-1 -264 134 -422q136 -158 350 -160q122 0 220 52t160 145l111 -108q-123 -174 -341 -225q-72 -17 -151 -16
q-288 0 -468 202q-181 202 -179 532q0 166 47 301q97 274 338 380q119 52 231 53zM585 1835l166 -195l165 195h145l-222 -297h-175l-223 297h144z" />
    <glyph glyph-name="ccaron" unicode="&#x10d;" horiz-adv-x="1018" 
d="M939 134q-127 -152 -349 -152t-355 150t-134 396t134 398q135 151 356 151q222 0 348 -151l-95 -107q-109 113 -257 113t-240 -109t-92 -293q0 -185 94 -294t242 -109t255 113zM418 1497l166 -194l166 194h144l-222 -297h-175l-223 297h144z" />
    <glyph glyph-name="Dcaron" unicode="&#x10e;" horiz-adv-x="1440" 
d="M334 1285v-1137h307q256 0 393 152t136 418q-1 265 -134 416q-135 151 -395 151h-307zM641 1434q322 0 508 -191t185 -527t-186 -526t-507 -190h-463v1434h463zM493 1835l165 -195l166 195h145l-223 -297h-175l-222 297h144z" />
    <glyph glyph-name="dcaron" unicode="&#x10f;" horiz-adv-x="1189" 
d="M586 933q-74 0 -135 -30q-126 -62 -172 -210q-24 -73 -24 -163t24 -164t68 -127q94 -113 240 -113t238 111q91 111 93 292q0 90 -25 165q-48 150 -172 210q-61 30 -135 29zM559 -18q-200 0 -329 153q-130 153 -130 395t129 394q129 153 330 153q230 0 350 -200v618h152
v-1495h-151v184q-121 -204 -351 -202zM1167 1090l8 405h143l-35 -405h-116z" />
    <glyph glyph-name="Dcroat" unicode="&#x110;" horiz-adv-x="1592" 
d="M846 652h-361v-504h308q258 0 393 152t135 416q0 265 -134 418q-135 151 -394 151h-308v-492h361v-141zM793 1434q322 0 507 -190t185 -526t-185 -527t-507 -191h-463v652h-224v141h224v641h463z" />
    <glyph glyph-name="dcroat" unicode="&#x111;" horiz-adv-x="1217" 
d="M586 933q-74 0 -135.5 -30t-105 -83t-67 -127.5t-23.5 -163.5t24 -163t67.5 -127.5t105 -83t135 -29.5t134 29t104.5 82.5t68.5 127.5t24.5 164.5t-24.5 164.5t-68.5 127t-104.5 82.5t-134.5 29.5zM559 -18q-200 0 -329.5 153t-129.5 395t130 394.5t329 152.5
q230 0 350 -200v315h-385v129h385v174h152v-174h120v-129h-120v-1192h-151v184q-119 -202 -351 -202z" />
    <glyph glyph-name="Emacron" unicode="&#x112;" horiz-adv-x="1119" 
d="M1030 0h-852v1434h846v-147h-690v-494h648v-141h-648v-506h696v-146zM324 1750h557v-126h-557v126z" />
    <glyph glyph-name="emacron" unicode="&#x113;" horiz-adv-x="1118" 
d="M568 938q-126 0 -211 -92q-84 -92 -100 -245h608q-10 152 -91 245q-80 92 -206 92zM585 -18q-219 0 -352 148t-133 397t132 399q132 151 336 151t327 -149t123 -394l-2 -56h-760q12 -174 106 -267t234 -91q173 0 302 125l78 -109q-158 -158 -391 -154zM295 1412h557v-126
h-557v126z" />
    <glyph glyph-name="Edotaccent" unicode="&#x116;" horiz-adv-x="1119" 
d="M1030 0h-852v1434h846v-147h-690v-494h648v-141h-648v-506h696v-146zM619 1813q45 1 73 -29t28 -74t-29 -72t-73 -28t-72 28q-29 28 -29 72t29 74t73 29z" />
    <glyph glyph-name="edotaccent" unicode="&#x117;" horiz-adv-x="1118" 
d="M568 938q-126 0 -211 -92q-84 -92 -100 -245h608q-10 152 -91 245q-80 92 -206 92zM585 -18q-219 0 -352 148t-133 397t132 399q132 151 336 151t327 -149t123 -394l-2 -56h-760q12 -174 106 -267t234 -91q173 0 302 125l78 -109q-158 -158 -391 -154zM573 1502
q43 0 72 -28q28 -30 28 -72t-28 -70q-27 -28 -71 -28t-72 28t-28 70t28 72q28 28 71 28z" />
    <glyph glyph-name="Eogonek" unicode="&#x118;" horiz-adv-x="1119" 
d="M627 -220q0 128 133 220h-582v1434h846v-147h-690v-494h648v-141h-648v-506h696v-146h-137q-129 -92 -129 -195q0 -47 31 -75t94 -28t119 54l73 -90q-86 -90 -216 -90q-162 0 -221 121q-17 37 -17 83z" />
    <glyph glyph-name="eogonek" unicode="&#x119;" horiz-adv-x="1118" 
d="M568 938q-126 0 -211 -92q-84 -92 -100 -245h608q-10 152 -91 245q-80 92 -206 92zM585 -18q-219 0 -352 148t-133 397t132 399q132 151 336 151t327 -149t123 -394l-2 -56h-760q12 -174 106 -267t234 -91q173 0 302 125l78 -109q-86 -86 -188 -121q-8 -3 -15 -6
q-147 -104 -147 -195q2 -112 126 -112q62 0 118 54l74 -90q-86 -90 -216 -90q-162 0 -221 121q-17 37 -18 83q0 109 109 202h-13z" />
    <glyph glyph-name="Ecaron" unicode="&#x11a;" horiz-adv-x="1119" 
d="M1030 0h-852v1434h846v-147h-690v-494h648v-141h-648v-506h696v-146zM436 1835l166 -195l166 195h144l-222 -297h-175l-222 297h143z" />
    <glyph glyph-name="ecaron" unicode="&#x11b;" horiz-adv-x="1118" 
d="M568 938q-126 0 -211 -92q-84 -92 -100 -245h608q-10 152 -91 245q-80 92 -206 92zM585 -18q-219 0 -352 148t-133 397t132 399q132 151 336 151t327 -149t123 -394l-2 -56h-760q12 -174 106 -267t234 -91q173 0 302 125l78 -109q-158 -158 -391 -154zM410 1497l165 -194
l166 194h145l-222 -297h-176l-222 297h144z" />
    <glyph glyph-name="Gcircumflex" unicode="&#x11c;" horiz-adv-x="1468" 
d="M290 1250q182 201 474 201t476 -210l-103 -117q-68 81 -165 128q-97 46 -207 46q-222 -1 -358 -158q-136 -158 -136 -423t136 -422q136 -158 338 -159t321 128t131 357h-395v145h557q2 -24 2 -57q0 -328 -165 -527t-442 -199q-278 0 -462 197t-184 532t182 538zM907 1540
l-166 196l-166 -196h-143l222 297h174l224 -297h-145z" />
    <glyph glyph-name="gcircumflex" unicode="&#x11d;" horiz-adv-x="1211" 
d="M821 824q-92 109 -238 109q-145 0 -236 -109q-92 -109 -92 -282q0 -172 90 -281q90 -110 237 -110q146 0 238 108t92 282q0 173 -91 283zM556 1077q234 0 348 -205v187h149v-1004q0 -237 -138 -366q-138 -130 -354 -128q-124 0 -228 43t-170 120l89 100
q124 -124 291 -124t263 91t96 261v155q-114 -200 -346 -200q-199 0 -327 147q-127 148 -128 387t127 387q127 149 328 149zM759 1203l-166 196l-166 -196h-143l222 297h174l223 -297h-144z" />
    <glyph glyph-name="Gbreve" unicode="&#x11e;" horiz-adv-x="1468" 
d="M290 1250q182 201 474 201t476 -210l-103 -117q-68 81 -165 128q-97 46 -207 46q-222 -1 -358 -158q-136 -158 -136 -423t136 -422q136 -158 338 -159t321 128t131 357h-395v145h557q2 -24 2 -57q0 -328 -165 -527t-442 -199q-278 0 -462 197t-184 532t182 538zM742 1538
q-122 0 -204 75q-81 75 -111 220l115 27q47 -193 200 -193q154 0 199 193l115 -27q-30 -145 -111 -220t-203 -75z" />
    <glyph glyph-name="gbreve" unicode="&#x11f;" horiz-adv-x="1211" 
d="M821 824q-92 109 -238 109q-145 0 -236 -109q-92 -109 -92 -282q0 -172 90 -281q90 -110 237 -110q146 0 238 108t92 282q0 173 -91 283zM556 1077q234 0 348 -205v187h149v-1004q0 -237 -138 -366q-138 -130 -354 -128q-124 0 -228 43t-170 120l89 100
q124 -124 291 -124t263 91t96 261v155q-114 -200 -346 -200q-199 0 -327 147q-127 148 -128 387t127 387q127 149 328 149zM593 1330q153 0 200 193l114 -27q-31 -145 -111 -220t-202 -75t-204 75q-81 75 -111 220l114 27q47 -193 200 -193z" />
    <glyph glyph-name="Gdotaccent" unicode="&#x120;" horiz-adv-x="1468" 
d="M290 1250q182 201 474 201t476 -210l-103 -117q-68 81 -165 128q-97 46 -207 46q-222 -1 -358 -158q-136 -158 -136 -423t136 -422q136 -158 338 -159t321 128t131 357h-395v145h557q2 -24 2 -57q0 -328 -165 -527t-442 -199q-278 0 -462 197t-184 532t182 538zM761 1813
q44 1 73 -29q28 -30 28 -74t-28 -72t-73 -28q-44 0 -73 28q-28 28 -28 72t28 74t73 29z" />
    <glyph glyph-name="gdotaccent" unicode="&#x121;" horiz-adv-x="1211" 
d="M821 824q-92 109 -238 109q-145 0 -236 -109q-92 -109 -92 -282q0 -172 90 -281q90 -110 237 -110q146 0 238 108t92 282q0 173 -91 283zM556 1077q234 0 348 -205v187h149v-1004q0 -237 -138 -366q-138 -130 -354 -128q-124 0 -228 43t-170 120l89 100
q124 -124 291 -124t263 91t96 261v155q-114 -200 -346 -200q-199 0 -327 147q-127 148 -128 387t127 387q127 149 328 149zM593 1503q43 -1 71 -29t28 -70t-28 -71q-28 -28 -71 -28t-71 28q-28 29 -28 71t28 70t71 29z" />
    <glyph glyph-name="uni0122" unicode="&#x122;" horiz-adv-x="1468" 
d="M290 1250q182 201 474 201t476 -210l-103 -117q-68 81 -165 128q-97 46 -207 46q-222 -1 -358 -158q-136 -158 -136 -423t136 -422q136 -158 338 -159t321 128t131 357h-395v145h557q2 -24 2 -57q0 -328 -165 -527t-442 -199q-278 0 -462 197t-184 532t182 538zM828 -89
l-68 -362h-121l41 362h148z" />
    <glyph glyph-name="uni0123" unicode="&#x123;" horiz-adv-x="1211" 
d="M821 824q-92 109 -238 109q-145 0 -236 -109q-92 -109 -92 -282q0 -172 90 -281q90 -110 237 -110q146 0 238 108t92 282q0 173 -91 283zM556 1077q234 0 348 -205v187h149v-1004q0 -237 -138 -366q-138 -130 -354 -128q-124 0 -228 43t-170 120l89 100
q124 -124 291 -124t263 91t96 261v155q-114 -200 -346 -200q-199 0 -327 147q-127 148 -128 387t127 387q127 149 328 149zM511 1202l69 361h120l-41 -361h-148z" />
    <glyph glyph-name="Hcircumflex" unicode="&#x124;" horiz-adv-x="1416" 
d="M334 797h748v637h156v-1434h-156v649h-748v-649h-156v1434h156v-637zM874 1540l-165 196l-166 -196h-144l223 297h174l223 -297h-145z" />
    <glyph glyph-name="hcircumflex" unicode="&#x125;" horiz-adv-x="1206" 
d="M1048 0h-152v649q0 134 -71 209t-198 75q-127 -1 -208 -81q-82 -80 -82 -208l-1 -1v-643h-151v1495h151v-598q79 138 220 168q141 31 263 -15q146 -56 200 -199q28 -71 29 -159v-692zM784 1578l-166 196l-165 -196h-144l222 297h175l223 -297h-145z" />
    <glyph glyph-name="Hbar" unicode="&#x126;" horiz-adv-x="1481" 
d="M368 797h748v243h-748v-243zM368 1169h748v265h156v-265h156v-129h-156v-1040h-156v649h-748v-649h-156v1040h-158v129h158v265h156v-265z" />
    <glyph glyph-name="hbar" unicode="&#x127;" horiz-adv-x="1199" 
d="M654 1077q174 0 280 -104.5t106 -280.5v-692h-151v649q0 134 -71.5 209t-198.5 75t-208 -80t-81 -209l-1 -1v-643h-151v1193h-141v129h141v173h151v-173h364v-129h-364v-296q103 180 325 180z" />
    <glyph glyph-name="Imacron" unicode="&#x12a;" horiz-adv-x="512" 
d="M334 0h-156v1434h156v-1434zM-23 1750h558v-126h-558v126z" />
    <glyph glyph-name="imacron" unicode="&#x12b;" horiz-adv-x="490" 
d="M321 0h-151v1059h151v-1059zM-33 1413h557v-126h-557v126z" />
    <glyph glyph-name="Iogonek" unicode="&#x12e;" horiz-adv-x="512" 
d="M195 -216q0 -82 92 -82q46 0 92 50l74 -91q-78 -85 -189 -85q-140 0 -189 108t47 235q29 37 52 57t28 24h-24v1434h156v-1434h-17q-122 -120 -122 -216z" />
    <glyph glyph-name="iogonek" unicode="&#x12f;" horiz-adv-x="476" 
d="M243 1504q44 0 74 -30t30 -74t-30 -74t-74 -30t-74 30t-30 74t30 74t74 30zM167 -216q0 -82 93 -82q47 0 91 50l74 -91q-78 -85 -188 -85q-141 0 -189 106q-15 33 -15 76q0 118 131 233q5 4 10 9h-6v1059h150v-1059h-29q-122 -120 -122 -216z" />
    <glyph glyph-name="Idotaccent" unicode="&#x130;" horiz-adv-x="512" 
d="M334 0h-156v1434h156v-1434zM265 1813q44 1 73 -29t29 -74t-29 -72t-73 -28q-45 0 -73 28t-28 72t28 74t73 29z" />
    <glyph glyph-name="dotlessi" unicode="&#x131;" horiz-adv-x="490" 
d="M321 0h-151v1059h151v-1059z" />
    <glyph glyph-name="Jcircumflex" unicode="&#x134;" horiz-adv-x="1022" 
d="M409 134q206 0 276 194q22 64 22 149v957h155v-972q0 -228 -124 -354t-318 -126t-321 106q-36 30 -64 60l97 109q108 -123 277 -123zM950 1540l-166 196l-166 -196h-143l222 297h174l224 -297h-145z" />
    <glyph glyph-name="jcircumflex" unicode="&#x135;" horiz-adv-x="450" 
d="M71 -295q99 0 99 136v1218h152v-1224q0 -132 -61 -203t-156 -71t-159 33l35 134q39 -23 90 -23zM412 1202l-166 196l-166 -196h-143l222 297h174l223 -297h-144z" />
    <glyph glyph-name="uni0136" unicode="&#x136;" horiz-adv-x="1226" 
d="M334 0h-156v1434h156v-690l627 690h197l-658 -709l691 -725h-203l-654 693v-693zM699 -89l-68 -362h-121l41 362h148z" />
    <glyph glyph-name="uni0137" unicode="&#x137;" horiz-adv-x="1028" 
d="M336 0h-151v1495h151v-916l464 479h189l-499 -501l506 -557h-186l-474 530v-530zM644 -89l-69 -362h-120l41 362h148z" />
    <glyph glyph-name="Lacute" unicode="&#x139;" horiz-adv-x="1099" 
d="M1055 0h-877v1434h156v-1287h721v-147zM123 1539l200 310h174l-236 -310h-138z" />
    <glyph glyph-name="lacute" unicode="&#x13a;" horiz-adv-x="454" 
d="M335 0h-147l-2 1495h151zM118 1580l199 310h175l-236 -310h-138z" />
    <glyph glyph-name="uni013B" unicode="&#x13b;" horiz-adv-x="1099" 
d="M1055 0h-877v1434h156v-1287h721v-147zM701 -89l-68 -362h-121l41 362h148z" />
    <glyph glyph-name="uni013C" unicode="&#x13c;" horiz-adv-x="523" 
d="M335 0h-147l-2 1495h151zM350 -89l-68 -362h-121l41 362h148z" />
    <glyph glyph-name="Lcaron" unicode="&#x13d;" horiz-adv-x="1099" 
d="M1055 0h-877v1434h156v-1287h721v-147zM551 1029l7 406h143l-34 -406h-116z" />
    <glyph glyph-name="lcaron" unicode="&#x13e;" horiz-adv-x="453" 
d="M335 0h-147l-2 1495h151zM429 1090l7 405h144l-35 -405h-116z" />
    <glyph glyph-name="Lslash" unicode="&#x141;" horiz-adv-x="1227" 
d="M462 147h721v-147h-877v539l-198 -112v156l198 111v740h156v-653l467 262v-154l-467 -263v-479z" />
    <glyph glyph-name="lslash" unicode="&#x142;" horiz-adv-x="624" 
d="M403 902l171 119v-145l-171 -119l-1 -757h-146l-1 654l-205 -142v144l205 143l-1 696h150z" />
    <glyph glyph-name="Nacute" unicode="&#x143;" horiz-adv-x="1429" 
d="M1251 -2h-146l-771 1127l-1 -1125h-155v1436h147l772 -1135v1133h154v-1436zM583 1539l199 310h174l-235 -310h-138z" />
    <glyph glyph-name="nacute" unicode="&#x144;" horiz-adv-x="1189" 
d="M645 1077q173 0 279 -104q107 -104 107 -281v-692h-151v649q0 134 -72 209t-197 75q-126 -1 -208 -81t-82 -208l-2 -1v-643h-150v1059h148v-165q105 183 328 183zM486 1202l200 310h174l-235 -310h-139z" />
    <glyph glyph-name="uni0145" unicode="&#x145;" horiz-adv-x="1429" 
d="M1251 -2h-146l-771 1127l-1 -1125h-155v1436h147l772 -1135v1133h154v-1436zM802 -89l-69 -362h-121l41 362h149z" />
    <glyph glyph-name="uni0146" unicode="&#x146;" horiz-adv-x="1189" 
d="M645 1077q173 0 279 -104q107 -104 107 -281v-692h-151v649q0 134 -72 209t-197 75q-126 -1 -208 -81t-82 -208l-2 -1v-643h-150v1059h148v-165q105 183 328 183zM687 -89l-69 -362h-120l41 362h148z" />
    <glyph glyph-name="Ncaron" unicode="&#x147;" horiz-adv-x="1429" 
d="M1251 -2h-146l-771 1127l-1 -1125h-155v1436h147l772 -1135v1133h154v-1436zM550 1835l166 -195l166 195h144l-222 -297h-175l-222 297h143z" />
    <glyph glyph-name="ncaron" unicode="&#x148;" horiz-adv-x="1189" 
d="M645 1077q173 0 279 -104q107 -104 107 -281v-692h-151v649q0 134 -72 209t-197 75q-126 -1 -208 -81t-82 -208l-2 -1v-643h-150v1059h148v-165q105 183 328 183zM443 1498l166 -194l166 194h145l-223 -297h-175l-222 297h143z" />
    <glyph glyph-name="Omacron" unicode="&#x14c;" horiz-adv-x="1509" 
d="M755 1300q-213 0 -348 -158t-136 -425t136 -428t348 -161q212 0 348 160q137 160 137 428t-136 426t-349 158zM288 1250q180 201 466 201q285 0 467 -201q181 -202 181 -533t-181 -533q-181 -203 -467 -202t-467 203t-180 532t181 533zM477 1750h557v-126h-557v126z" />
    <glyph glyph-name="omacron" unicode="&#x14d;" horiz-adv-x="1184" 
d="M350 822q-95 -112 -95 -292q0 -181 94 -292t243 -111q148 0 243 110q95 113 95 293q0 181 -94 291q-94 111 -242 111q-147 0 -244 -110zM594 1077q217 0 355 -153q137 -153 136 -396t-138 -394q-137 -152 -355 -152t-354 150t-137 396t138 398q138 151 355 151zM313 1411
h557v-126h-557v126z" />
    <glyph glyph-name="Ohungarumlaut" unicode="&#x150;" horiz-adv-x="1509" 
d="M755 1300q-213 0 -348 -158t-136 -425t136 -428t348 -161q212 0 348 160q137 160 137 428t-136 426t-349 158zM288 1250q180 201 466 201q285 0 467 -201q181 -202 181 -533t-181 -533q-181 -203 -467 -202t-467 203t-180 532t181 533zM496 1539l194 310h155l-208 -310
h-141zM821 1539l207 310h160l-225 -310h-142z" />
    <glyph glyph-name="ohungarumlaut" unicode="&#x151;" horiz-adv-x="1184" 
d="M350 822q-95 -112 -95 -292q0 -181 94 -292t243 -111q148 0 243 110q95 113 95 293q0 181 -94 291q-94 111 -242 111q-147 0 -244 -110zM594 1077q217 0 355 -153q137 -153 136 -396t-138 -394q-137 -152 -355 -152t-354 150t-137 396t138 398q138 151 355 151zM344 1200
l195 310h154l-208 -310h-141zM670 1200l207 310h159l-225 -310h-141z" />
    <glyph glyph-name="OE" unicode="&#x152;" horiz-adv-x="1944" 
d="M406.5 299q135.5 -151 393.5 -151h204v1137h-204q-257 0 -393 -150.5t-136 -417.5t135.5 -418zM1855 0h-1055q-323 0 -507.5 190t-184.5 526q0 335 185 526.5t507 191.5h1049v-147h-690v-494h648v-141h-648v-506h696v-146z" />
    <glyph glyph-name="oe" unicode="&#x153;" horiz-adv-x="1880" 
d="M1144.5 817.5q-79.5 -87.5 -95.5 -236.5h581q-10 148 -87.5 236t-197.5 88q-121 0 -200.5 -87.5zM572 899q-70 0 -128.5 -27.5t-101.5 -78.5t-67 -122.5t-24 -159.5t24 -159t67 -122t102 -78.5t129 -27.5t129.5 27.5t102.5 78.5t67.5 122t24.5 159t-24.5 159.5
t-67.5 122.5t-103 78.5t-130 27.5zM588 -17q-118 0 -205 38t-150 107.5t-98 166.5t-35 274t132 324t336 147q203 0 286.5 -95t112.5 -153q55 118 154.5 183t210.5 65q209 0 328.5 -145t119.5 -380q0 -14 -1 -28l-2 -26h-729q12 -165 100.5 -254.5t240.5 -89.5t274 120
l76 -106q-152 -148 -376 -148q-137 -1 -239 63.5t-157 181.5q-58 -116 -159.5 -180.5t-219.5 -64.5z" />
    <glyph glyph-name="Racute" unicode="&#x154;" horiz-adv-x="1230" 
d="M658 742q312 0 312 272t-312 272h-324v-544h324zM658 1434q221 0 347 -108q125 -108 127 -310q0 -161 -93 -268t-257 -137l343 -611h-174l-331 601h-286v-601h-156v1434h480zM469 1539l200 310h174l-236 -310h-138z" />
    <glyph glyph-name="racute" unicode="&#x155;" horiz-adv-x="829" 
d="M600 1077q100 0 166 -33l-41 -149q-66 32 -136 32q-69 0 -115 -22q-145 -69 -155 -279v-626h-150v1059h147v-168q93 186 284 186zM342 1202l200 310h174l-236 -310h-138z" />
    <glyph glyph-name="uni0156" unicode="&#x156;" horiz-adv-x="1230" 
d="M658 742q312 0 312 272t-312 272h-324v-544h324zM658 1434q221 0 347 -108q125 -108 127 -310q0 -161 -93 -268t-257 -137l343 -611h-174l-331 601h-286v-601h-156v1434h480zM698 -89l-68 -362h-121l41 362h148z" />
    <glyph glyph-name="uni0157" unicode="&#x157;" horiz-adv-x="829" 
d="M600 1077q100 0 166 -33l-41 -149q-66 32 -136 32q-69 0 -115 -22q-145 -69 -155 -279v-626h-150v1059h147v-168q93 186 284 186zM334 -89l-69 -362h-121l41 362h149z" />
    <glyph glyph-name="Rcaron" unicode="&#x158;" horiz-adv-x="1230" 
d="M658 742q312 0 312 272t-312 272h-324v-544h324zM658 1434q221 0 347 -108q125 -108 127 -310q0 -161 -93 -268t-257 -137l343 -611h-174l-331 601h-286v-601h-156v1434h480zM436 1835l166 -195l166 195h144l-222 -297h-175l-222 297h143z" />
    <glyph glyph-name="rcaron" unicode="&#x159;" horiz-adv-x="829" 
d="M600 1077q100 0 166 -33l-41 -149q-66 32 -136 32q-69 0 -115 -22q-145 -69 -155 -279v-626h-150v1059h147v-168q93 186 284 186zM299 1498l166 -194l166 194h144l-222 -297h-175l-222 297h143z" />
    <glyph glyph-name="Sacute" unicode="&#x15a;" horiz-adv-x="1226" 
d="M636 1300q-148 0 -238 -67t-91 -174q0 -107 70 -171t226 -93l130 -23q390 -81 386 -381q0 -192 -147 -301q-147 -110 -364 -109q-218 1 -402 100q-56 30 -98 66l92 122q108 -89 281 -125q57 -11 125 -11q148 0 251 66q102 66 101 177q-1 110 -77 170t-228 89l-137 23
q-179 38 -275 135t-96 267q-1 170 137 281q138 110 347 110q265 0 458 -149l-92 -120q-157 118 -359 118zM495 1539l199 310h174l-235 -310h-138z" />
    <glyph glyph-name="sacute" unicode="&#x15b;" horiz-adv-x="1011" 
d="M519 940q-102 0 -168 -45q-64 -45 -64 -118q1 -72 49 -111t153 -57l116 -19q306 -54 306 -288q0 -146 -115 -233q-115 -86 -303 -86q-233 0 -393 127l74 114q128 -104 316 -104t247 98q19 32 20 75q0 131 -208 165l-116 18q-297 49 -301 292q0 142 108 227q108 84 275 82
q223 0 372 -112l-68 -118q-131 93 -300 93zM404 1200l200 310h174l-235 -310h-139z" />
    <glyph glyph-name="Scircumflex" unicode="&#x15c;" horiz-adv-x="1226" 
d="M636 1300q-148 0 -238 -67t-91 -174q0 -107 70 -171t226 -93l130 -23q390 -81 386 -381q0 -192 -147 -301q-147 -110 -364 -109q-218 1 -402 100q-56 30 -98 66l92 122q108 -89 281 -125q57 -11 125 -11q148 0 251 66q102 66 101 177q-1 110 -77 170t-228 89l-137 23
q-179 38 -275 135t-96 267q-1 170 137 281q138 110 347 110q265 0 458 -149l-92 -120q-157 118 -359 118zM794 1540l-166 196l-166 -196h-144l223 297h174l223 -297h-144z" />
    <glyph glyph-name="scircumflex" unicode="&#x15d;" horiz-adv-x="1011" 
d="M519 940q-102 0 -168 -45q-64 -45 -64 -118q1 -72 49 -111t153 -57l116 -19q306 -54 306 -288q0 -146 -115 -233q-115 -86 -303 -86q-233 0 -393 127l74 114q128 -104 316 -104t247 98q19 32 20 75q0 131 -208 165l-116 18q-297 49 -301 292q0 142 108 227q108 84 275 82
q223 0 372 -112l-68 -118q-131 93 -300 93zM691 1201l-166 196l-166 -196h-143l222 297h174l224 -297h-145z" />
    <glyph glyph-name="Scedilla" unicode="&#x15e;" horiz-adv-x="1226" 
d="M636 1300q-148 0 -238 -67t-91 -174q0 -107 70 -171t226 -93l130 -23q390 -81 386 -381q0 -192 -149 -304q-111 -82 -269 -100l-89 -318h-146l93 314q-192 11 -353 98q-56 30 -98 66l92 122q108 -89 281 -125q57 -11 125 -11q148 0 251 66q102 66 101 177q-1 110 -77 170
t-228 89l-137 23q-179 38 -275 135t-96 267q-1 170 137 281q138 110 347 110q265 0 458 -149l-92 -120q-157 118 -359 118z" />
    <glyph glyph-name="scedilla" unicode="&#x15f;" horiz-adv-x="1011" 
d="M519 940q-102 0 -168 -45q-64 -45 -64 -118q1 -72 49 -111t153 -57l116 -19q306 -54 306 -288q0 -146 -115 -234q-82 -61 -203 -78l-90 -321h-142l92 315q-210 12 -353 126l74 114q128 -104 316 -104t247 98q19 32 20 75q0 131 -208 165l-116 18q-297 49 -301 292
q0 142 108 227q108 84 275 82q223 0 372 -112l-68 -118q-131 93 -300 93z" />
    <glyph glyph-name="Scaron" unicode="&#x160;" horiz-adv-x="1226" 
d="M636 1300q-148 0 -238 -67t-91 -174q0 -107 70 -171t226 -93l130 -23q390 -81 386 -381q0 -192 -147 -301q-147 -110 -364 -109q-218 1 -402 100q-56 30 -98 66l92 122q108 -89 281 -125q57 -11 125 -11q148 0 251 66q102 66 101 177q-1 110 -77 170t-228 89l-137 23
q-179 38 -275 135t-96 267q-1 170 137 281q138 110 347 110q265 0 458 -149l-92 -120q-157 118 -359 118zM462 1835l166 -195l166 195h144l-222 -297h-175l-223 297h144z" />
    <glyph glyph-name="scaron" unicode="&#x161;" horiz-adv-x="1011" 
d="M519 940q-102 0 -168 -45q-64 -45 -64 -118q1 -72 49 -111t153 -57l116 -19q306 -54 306 -288q0 -146 -115 -233q-115 -86 -303 -86q-233 0 -393 127l74 114q128 -104 316 -104t247 98q19 32 20 75q0 131 -208 165l-116 18q-297 49 -301 292q0 142 108 227q108 84 275 82
q223 0 372 -112l-68 -118q-131 93 -300 93zM361 1496l166 -194l166 194h145l-223 -297h-175l-222 297h143z" />
    <glyph glyph-name="uni0162" unicode="&#x162;" horiz-adv-x="1127" 
d="M1082 1286h-441v-1286h-9l-91 -331h-147l99 331h-8v1286h-440v148h1037v-148z" />
    <glyph glyph-name="uni0163" unicode="&#x163;" horiz-adv-x="791" 
d="M226 898h-176v140h176v292h151v-292h331v-140h-331v-567q0 -106 44 -155t119 -49t147 59l58 -121q-92 -74 -197 -82l-88 -314h-142l95 327q-185 59 -187 330v572z" />
    <glyph glyph-name="Tcaron" unicode="&#x164;" horiz-adv-x="1127" 
d="M1082 1286h-441v-1286h-156v1286h-440v148h1037v-148zM397 1835l166 -195l166 195h144l-222 -297h-175l-222 297h143z" />
    <glyph glyph-name="tcaron" unicode="&#x165;" horiz-adv-x="741" 
d="M226 898h-176v140h176v292h151v-292h331v-140h-331v-567q0 -106 44 -155t119 -49t147 59l58 -121q-106 -85 -236 -84t-206 86t-77 259v572zM508 1152l7 406h143l-34 -406h-116z" />
    <glyph glyph-name="Umacron" unicode="&#x16a;" horiz-adv-x="1372" 
d="M1211 513q0 -251 -147 -391q-147 -139 -378 -139q-232 0 -378 138q-147 138 -147 392v921h155v-914q0 -189 101 -287t269 -98q256 0 342 214q28 73 28 171v914h155v-921zM408 1750h557v-126h-557v126z" />
    <glyph glyph-name="umacron" unicode="&#x16b;" horiz-adv-x="1189" 
d="M159 367v692h150v-649q0 -134 72 -209q71 -75 199 -75t208 80t81 209v644h152v-1059h-149v165q-102 -183 -327 -183q-173 0 -279 104q-107 105 -107 281zM311 1413h557v-126h-557v126z" />
    <glyph glyph-name="Ubreve" unicode="&#x16c;" horiz-adv-x="1372" 
d="M1211 513q0 -251 -147 -391q-147 -139 -378 -139q-232 0 -378 138q-147 138 -147 392v921h155v-914q0 -189 101 -287t269 -98q256 0 342 214q28 73 28 171v914h155v-921zM686 1538q-122 0 -203 75t-111 220l114 27q47 -193 201 -193t199 193l114 -27q-30 -145 -110 -220
q-82 -75 -204 -75z" />
    <glyph glyph-name="ubreve" unicode="&#x16d;" horiz-adv-x="1189" 
d="M159 367v692h150v-649q0 -134 72 -209q71 -75 199 -75t208 80t81 209v644h152v-1059h-149v165q-102 -183 -327 -183q-173 0 -279 104q-107 105 -107 281zM590 1330q153 0 200 193l114 -27q-30 -145 -110 -220t-204 -75q-122 0 -203 75t-112 220l115 27q47 -193 200 -193z
" />
    <glyph glyph-name="Uring" unicode="&#x16e;" horiz-adv-x="1372" 
d="M1211 513q0 -251 -147 -391q-147 -139 -378 -139q-232 0 -378 138q-147 138 -147 392v921h155v-914q0 -189 101 -287t269 -98q256 0 342 214q28 73 28 171v914h155v-921zM686 1614q51 0 88 36t37 87q-1 52 -27 80q-46 48 -98 48t-88 -37t-36 -76t10 -62q33 -76 114 -76z
M469 1740q-1 88 63 152t153 63q89 0 154 -62t65 -153q0 -90 -65 -153q-65 -62 -153 -62t-153 63q-64 64 -64 152z" />
    <glyph glyph-name="uring" unicode="&#x16f;" horiz-adv-x="1189" 
d="M159 367v692h150v-649q0 -134 72 -209q71 -75 199 -75t208 80t81 209v644h152v-1059h-149v165q-102 -183 -327 -183q-173 0 -279 104q-107 105 -107 281zM602 1528q-38 0 -60 -10q-76 -34 -76 -115q0 -52 36 -89t86 -37q51 0 89 36t38 90q0 53 -37 89q-38 36 -76 36z
M590 1188q-44 0 -84 17q-78 34 -116 114q-17 39 -17 83q-1 88 63 152t153 64t154 -63t65 -153t-65 -152t-153 -62z" />
    <glyph glyph-name="Uhungarumlaut" unicode="&#x170;" horiz-adv-x="1372" 
d="M1211 513q0 -251 -147 -391q-147 -139 -378 -139q-232 0 -378 138q-147 138 -147 392v921h155v-914q0 -189 101 -287t269 -98q256 0 342 214q28 73 28 171v914h155v-921zM427 1539l195 310h154l-208 -310h-141zM753 1539l206 310h160l-225 -310h-141z" />
    <glyph glyph-name="uhungarumlaut" unicode="&#x171;" horiz-adv-x="1189" 
d="M159 367v692h150v-649q0 -134 72 -209q71 -75 199 -75t208 80t81 209v644h152v-1059h-149v165q-102 -183 -327 -183q-173 0 -279 104q-107 105 -107 281zM342 1202l195 310h154l-208 -310h-141zM668 1202l206 310h160l-225 -310h-141z" />
    <glyph glyph-name="Uogonek" unicode="&#x172;" horiz-adv-x="1372" 
d="M766 -185q0 -113 125 -113q63 0 119 54l73 -90q-86 -90 -216 -90q-162 0 -221 121q-17 37 -17 83q0 119 112 205q-27 -2 -55 -2q-232 0 -378 138q-147 138 -147 392v921h155v-914q0 -189 101 -287t269 -98q256 0 342 214q28 73 28 171v914h155v-921q0 -251 -150 -395
q-56 -53 -128 -85q-167 -117 -167 -218z" />
    <glyph glyph-name="uogonek" unicode="&#x173;" horiz-adv-x="1189" 
d="M796 -216q0 -82 92 -82q46 0 92 50l74 -91q-78 -85 -189 -85q-140 0 -188 106q-15 33 -15 78q0 131 169 234q20 12 41 25v146q-102 -183 -327 -183q-173 0 -279 104q-107 104 -107 281v692h150v-649q0 -134 72 -209q71 -75 199 -75t208 80t81 209v644h152v-1059h-42
q-183 -111 -183 -216z" />
    <glyph glyph-name="Ydieresis" unicode="&#x178;" horiz-adv-x="1179" 
d="M670 0h-156v586l-505 848h181l402 -665l403 665h176l-501 -850v-584zM883 1688q0 -42 -28 -68q-27 -28 -69 -28t-70 27t-27 69q-1 42 27 70t70 28t69 -28q28 -28 28 -70zM398 1786q42 0 70 -28t28 -70t-28 -68q-28 -28 -70 -28t-68 27q-27 27 -27 69t27 70q26 28 68 28z
" />
    <glyph glyph-name="Zacute" unicode="&#x179;" horiz-adv-x="1231" 
d="M1125 147v-147h-982v123l785 1163h-774v148h969v-122l-785 -1165h787zM506 1539l200 310h174l-236 -310h-138z" />
    <glyph glyph-name="zacute" unicode="&#x17a;" horiz-adv-x="1045" 
d="M934 139v-139h-816v115l624 805h-604v139h788v-116l-618 -804h626zM411 1202l199 310h174l-235 -310h-138z" />
    <glyph glyph-name="Zdotaccent" unicode="&#x17b;" horiz-adv-x="1231" 
d="M1125 147v-147h-982v123l785 1163h-774v148h969v-122l-785 -1165h787zM657 1813q45 1 73 -29t28 -74t-29 -72t-73 -28t-72 28q-29 28 -29 72t29 74t73 29z" />
    <glyph glyph-name="zdotaccent" unicode="&#x17c;" horiz-adv-x="1045" 
d="M934 139v-139h-816v115l624 805h-604v139h788v-116l-618 -804h626zM531 1503q43 0 72 -28q28 -29 28 -71t-28 -71q-27 -28 -71 -28t-72 28q-28 29 -28 71t28 70t71 29z" />
    <glyph glyph-name="Zcaron" unicode="&#x17d;" horiz-adv-x="1231" 
d="M1125 147v-147h-982v123l785 1163h-774v148h969v-122l-785 -1165h787zM473 1835l166 -195l166 195h144l-222 -297h-175l-222 297h143z" />
    <glyph glyph-name="zcaron" unicode="&#x17e;" horiz-adv-x="1045" 
d="M934 139v-139h-816v115l624 805h-604v139h788v-116l-618 -804h626zM368 1498l166 -194l165 194h145l-222 -297h-176l-222 297h144z" />
    <glyph glyph-name="uni0218" unicode="&#x218;" horiz-adv-x="1226" 
d="M636 1300q-148 0 -238 -67t-91 -174q0 -107 70 -171t226 -93l130 -23q390 -81 386 -381q0 -192 -147 -301q-147 -110 -364 -109q-218 1 -402 100q-56 30 -98 66l92 122q108 -89 281 -125q57 -11 125 -11q148 0 251 66q102 66 101 177q-1 110 -77 170t-228 89l-137 23
q-179 38 -275 135t-96 267q-1 170 137 281q138 110 347 110q265 0 458 -149l-92 -120q-157 118 -359 118zM729 -89l-69 -362h-120l41 362h148z" />
    <glyph glyph-name="uni0219" unicode="&#x219;" horiz-adv-x="1011" 
d="M519 940q-102 0 -168 -45q-64 -45 -64 -118q1 -72 49 -111t153 -57l116 -19q306 -54 306 -288q0 -146 -115 -233q-115 -86 -303 -86q-233 0 -393 127l74 114q128 -104 316 -104t247 98q19 32 20 75q0 131 -208 165l-116 18q-297 49 -301 292q0 142 108 227q108 84 275 82
q223 0 372 -112l-68 -118q-131 93 -300 93zM601 -89l-69 -362h-120l41 362h148z" />
    <glyph glyph-name="uni021A" unicode="&#x21a;" horiz-adv-x="1127" 
d="M1082 1286h-441v-1286h-156v1286h-440v148h1037v-148zM657 -89l-68 -362h-121l41 362h148z" />
    <glyph glyph-name="uni021B" unicode="&#x21b;" horiz-adv-x="791" 
d="M226 898h-176v140h176v292h151v-292h331v-140h-331v-567q0 -106 44 -155t119 -49t147 59l58 -121q-106 -85 -236 -84t-206 86t-77 259v572zM558 -89l-69 -362h-120l41 362h148z" />
    <glyph glyph-name="uni0237" unicode="&#x237;" horiz-adv-x="450" 
d="M71 -295q99 0 99 136v1218h152v-1224q0 -200 -89.5 -237t-157.5 -37t-129 33l35 134q39 -23 90 -23z" />
    <glyph glyph-name="circumflex" unicode="&#x2c6;" horiz-adv-x="707" 
d="M547 1117l-166 196l-166 -196h-143l222 297h175l222 -297h-144z" />
    <glyph glyph-name="caron" unicode="&#x2c7;" horiz-adv-x="855" 
d="M260 1412l167 -194l165 194h144l-222 -297h-175l-222 297h143z" />
    <glyph glyph-name="breve" unicode="&#x2d8;" horiz-adv-x="707" 
d="M374 1244q154 0 198 193l115 -28q-30 -144 -110.5 -219t-202.5 -75t-204 75t-112 219l115 28q47 -193 201 -193z" />
    <glyph glyph-name="dotaccent" unicode="&#x2d9;" horiz-adv-x="571" 
d="M286 1417q43 -1 71 -29t28 -70t-28 -71q-28 -28 -71 -28t-71 28q-29 29 -29 71t28 70t72 29z" />
    <glyph glyph-name="ring" unicode="&#x2da;" horiz-adv-x="707" 
d="M440 1227q36 36 36 76t-9.5 63t-26.5 39.5t-40 26.5t-60.5 10t-75 -36t-37.5 -76t10 -63t36.5 -49.5t78.5 -26.5t88 36zM197.5 1165.5q-63.5 63.5 -63.5 151.5t63.5 151.5t153 63.5t154 -62.5t64.5 -152.5t-64.5 -152.5t-154 -62.5t-153 63.5z" />
    <glyph glyph-name="ogonek" unicode="&#x2db;" horiz-adv-x="949" 
d="M512 -188q0 -110 125 -110q63 0 119 54l73 -90q-86 -90 -203 -90t-182.5 58t-65.5 153q0 141 105.5 209.5t164.5 97.5l64 -67q-200 -111 -200 -215z" />
    <glyph glyph-name="tilde" unicode="&#x2dc;" horiz-adv-x="707" 
d="M49 1253q85 120 196 120q75 -1 124 -27q51 -26 75 -38t55 -12q65 0 118 69l91 -79q-83 -118 -207 -120q-65 0 -114 26t-74 40q-25 12 -56 12q-62 0 -119 -69z" />
    <glyph glyph-name="hungarumlaut" unicode="&#x2dd;" horiz-adv-x="707" 
d="M32 1116l199 310h167l-228 -310h-138zM381 1116l204 310h168l-232 -310h-140z" />
    <glyph glyph-name="gravecomb" unicode="&#x300;" horiz-adv-x="0" 
d="M-261 1426h174l200 -310h-140z" />
    <glyph glyph-name="acutecomb" unicode="&#x301;" horiz-adv-x="0" 
d="M-253 1116l200 310h174l-236 -310h-138z" />
    <glyph glyph-name="uni0302" unicode="&#x302;" horiz-adv-x="0" 
d="M230 1117l-165 196l-166 -196h-144l222 297h175l223 -297h-145z" />
    <glyph glyph-name="tildecomb" unicode="&#x303;" horiz-adv-x="0" 
d="M-258 1253q85 120 196 120q80 0 148 -38.5t105 -38.5q66 0 119 69l90 -79q-85 -120 -206 -120q-66 0 -114.5 27t-73 39t-56.5 12q-60 0 -119 -69z" />
    <glyph glyph-name="uni0304" unicode="&#x304;" horiz-adv-x="0" 
d="M-253 1327h557v-126h-557v126z" />
    <glyph glyph-name="uni0306" unicode="&#x306;" horiz-adv-x="0" 
d="M58 1244q153 0 199 193l115 -27q-30 -145 -111 -220t-203 -75t-203.5 75t-111.5 220l115 27q47 -193 200 -193z" />
    <glyph glyph-name="uni0307" unicode="&#x307;" horiz-adv-x="0" 
d="M-184 1417q43 0 71 -28.5t28 -70.5t-28 -70.5t-71 -28.5t-71.5 28.5t-28.5 70.5t28.5 70.5t71.5 28.5z" />
    <glyph glyph-name="uni0308" unicode="&#x308;" horiz-adv-x="0" 
d="M218 1363q42 0 69.5 -27.5t27.5 -69.5t-27.5 -69.5t-69.5 -27.5t-69 27.5t-27 69.5t27 69.5t69 27.5zM-168 1363q42 0 69.5 -27.5t27.5 -69.5t-27.5 -69.5t-69.5 -27.5t-69 27.5t-27 69.5t27 69.5t69 27.5z" />
    <glyph glyph-name="uni030A" unicode="&#x30a;" horiz-adv-x="0" 
d="M39.5 1228q35.5 37 35.5 76t-10 62t-26.5 39.5t-40 26.5t-61 10t-74.5 -35.5t-37 -76.5q0 -40 9.5 -63t36 -49.5t79.5 -26.5t88.5 37zM-203.5 1165.5q-63.5 63.5 -63.5 151.5t63.5 151.5t153 63.5t154 -63t64.5 -152t-64.5 -152t-154 -63t-153 63.5z" />
    <glyph glyph-name="uni030B" unicode="&#x30b;" horiz-adv-x="0" 
d="M-247 1116l195 310h154l-207 -310h-142zM79 1116l207 310h159l-225 -310h-141z" />
    <glyph glyph-name="uni030C" unicode="&#x30c;" horiz-adv-x="0" 
d="M-110 1412l166 -194l166 194h145l-223 -297h-175l-222 297h143z" />
    <glyph glyph-name="uni0312" unicode="&#x312;" horiz-adv-x="0" 
d="M-253 1116l69 361h121l-41 -361h-149z" />
    <glyph glyph-name="uni0326" unicode="&#x326;" horiz-adv-x="0" 
d="M-63 -89l-69 -362h-121l41 362h149z" />
    <glyph glyph-name="uni0327" unicode="&#x327;" horiz-adv-x="0" 
d="M-421 -331h-141l100 346l135 -10z" />
    <glyph glyph-name="uni0328" unicode="&#x328;" horiz-adv-x="0" 
d="M-249 47q-188 -123 -188 -234q1 -111 125 -111q62 0 118 54l74 -90q-86 -90 -203 -90t-184 56.5t-67 147.5q0 145 114 212t180 98z" />
    <glyph glyph-name="uni0335" unicode="&#x335;" horiz-adv-x="0" 
d="M-78 476h-656v129h656v-129z" />
    <glyph glyph-name="uni0336" unicode="&#x336;" horiz-adv-x="0" 
d="M-46 476h-1374v129h1374v-129z" />
    <glyph glyph-name="uni0394" unicode="&#x394;" horiz-adv-x="1289" 
d="M241 147h809l-405 1098zM1218 0h-1146v126l480 1310h186l480 -1310v-126z" />
    <glyph glyph-name="uni03A9" unicode="&#x3a9;" horiz-adv-x="1601" 
d="M154 752q0 128 48 264t134 232q86 97 205 150t260 53q285 0 466 -204t181 -531q0 -275 -165 -466q-52 -59 -116 -103h327v-147h-539v135q151 55 241 208t88 364q0 268 -136 429q-136 162 -348 162q-211 0 -346 -161t-137 -430q0 -213 90 -365q90 -153 239 -207v-135h-538
v147h326q-280 192 -280 605z" />
    <glyph glyph-name="uni03BC" unicode="&#x3bc;" horiz-adv-x="1137" 
d="M159 -446v1505h150v-649q0 -134 72 -209q71 -75 199 -75t208 80t81 209v644h152v-1059h-149v184q-77 -156 -234 -192q-48 -11 -96 -10q-140 0 -238 70v-498h-145z" />
    <glyph glyph-name="pi" unicode="&#x3c0;" horiz-adv-x="1188" 
d="M1030 0h-151v919h-560v-919h-150v1059h861v-1059z" />
    <glyph glyph-name="uni2007" unicode="&#x2007;" horiz-adv-x="1295" 
 />
    <glyph glyph-name="uni2008" unicode="&#x2008;" horiz-adv-x="490" 
 />
    <glyph glyph-name="uni200B" unicode="&#x200b;" horiz-adv-x="0" 
 />
    <glyph glyph-name="endash" unicode="&#x2013;" horiz-adv-x="1084" 
d="M978 475h-872v132h872v-132z" />
    <glyph glyph-name="emdash" unicode="&#x2014;" horiz-adv-x="1474" 
d="M1421 475h-1367v132h1367v-132z" />
    <glyph glyph-name="quoteleft" unicode="&#x2018;" horiz-adv-x="490" 
d="M127 1164q0 231 165 357l55 -82q-85 -83 -105 -196h7q46 0 69 -24t31.5 -44t8.5 -53.5t-31.5 -66.5t-67.5 -33q-62 0 -97 37t-35 105z" />
    <glyph glyph-name="quoteright" unicode="&#x2019;" horiz-adv-x="490" 
d="M364 1370q0 -232 -165 -356l-56 82q83 79 106 195h-7q-70 0 -90 44t-20 66.5t9 42.5t23.5 35.5t34.5 24t57 8.5t72.5 -37.5t35.5 -104.5z" />
    <glyph glyph-name="quotesinglbase" unicode="&#x201a;" horiz-adv-x="490" 
d="M364 66q0 -231 -165 -357l-56 82q84 82 106 196h-7q-70 0 -90 44t-20 66.5t9 42.5t23.5 35t34.5 24t56.5 9t72.5 -37.5t36 -104.5z" />
    <glyph glyph-name="quotedblleft" unicode="&#x201c;" horiz-adv-x="863" 
d="M500 1164q0 231 165 357l55 -82q-83 -81 -106 -196h8q46 0 69 -24t31.5 -44t8.5 -53.5t-31.5 -66.5t-67.5 -33q-62 0 -97 37t-35 105zM127 1164q0 231 165 357l55 -82q-85 -83 -105 -196h7q46 0 69 -24t31.5 -44t8.5 -53.5t-31.5 -66.5t-67.5 -33q-62 0 -97 37t-35 105z
" />
    <glyph glyph-name="quotedblright" unicode="&#x201d;" horiz-adv-x="862" 
d="M364 1370q0 -232 -165 -356l-56 82q83 79 106 195h-7q-70 0 -90 44t-20 66.5t9 42.5t23.5 35.5t34.5 24t57 8.5t72.5 -37.5t35.5 -104.5zM735 1370q0 -232 -165 -356l-55 82q81 76 106 195h-8q-44 0 -68 24t-32.5 44t-8.5 42.5t8.5 42.5t23.5 35.5t35 24t57 8.5t72 -37
t35 -105z" />
    <glyph glyph-name="quotedblbase" unicode="&#x201e;" horiz-adv-x="862" 
d="M364 66q0 -231 -165 -357l-56 82q84 82 106 196h-7q-70 0 -90 44t-20 66.5t9 42.5t23.5 35t34.5 24t56.5 9t72.5 -37.5t36 -104.5zM735 66q0 -231 -165 -357l-55 82q81 79 106 196h-8q-46 0 -69 24t-31.5 44t-8.5 42.5t8.5 42.5t23.5 35t35 24t56.5 9t72 -37t35.5 -105z
" />
    <glyph glyph-name="dagger" unicode="&#x2020;" horiz-adv-x="670" 
d="M279 744v418h-190v112h190v201h113v-201h190v-112h-190v-418h-113z" />
    <glyph glyph-name="daggerdbl" unicode="&#x2021;" horiz-adv-x="670" 
d="M392 1302h190v-112h-190v-161h190v-113h-190v-172h-113v172h-190v113h190v161h-190v112h190v173h113v-173z" />
    <glyph glyph-name="bullet" unicode="&#x2022;" horiz-adv-x="817" 
d="M555.5 688.5q61.5 -61.5 61.5 -147.5t-61.5 -147.5t-147.5 -61.5t-147 61t-61 148t61 148t147 61t147.5 -61.5z" />
    <glyph glyph-name="ellipsis" unicode="&#x2026;" horiz-adv-x="1351" 
d="M133 106q-1 34 33 69q34 34 68 34q84 0 115 -70q18 -41 5 -74q-35 -84 -108 -81q-24 0 -44 8q-69 31 -69 114zM563 106q-1 34 33 69q34 34 68 34q84 0 115 -70q18 -41 5 -74q-35 -84 -108 -81q-24 0 -44 8q-69 31 -69 114zM994 106q0 34 34 69q34 34 68 34q84 0 114 -70
q9 -20 9 -54t-33 -68q-33 -35 -68 -34t-55 9q-69 31 -69 114z" />
    <glyph glyph-name="perthousand" unicode="&#x2030;" horiz-adv-x="2505" 
d="M1930 484q-60 -62 -60 -159.5t59.5 -160.5t151.5 -63t152 63.5t60 160t-60.5 159t-151.5 62.5t-151 -62zM2080 664q144 0 242 -97.5t98 -243.5t-97 -243t-243 -97t-241.5 96t-95.5 244t96.5 244.5t240.5 96.5zM1158 163q60 -62 151 -62t151.5 63.5t60.5 160t-60.5 159
t-151.5 62.5t-151 -61.5t-60 -160.5t60 -161zM1549 566q98 -98 98 -244t-96.5 -242.5t-242.5 -96.5t-242 96t-96 244t96.5 244.5t240.5 96.5t242 -98zM519 0h-143l838 1434h143zM273 1271q-60 -62 -60 -159.5t60 -159.5t151 -62t151.5 62.5t60.5 159t-60.5 159t-151.5 62.5
t-151 -62zM666.5 1356q96.5 -96 96.5 -244t-96.5 -244.5t-242.5 -96.5t-242 96.5t-96 244.5t96 244t242 96t242.5 -96z" />
    <glyph glyph-name="guilsinglleft" unicode="&#x2039;" horiz-adv-x="611" 
d="M467 169h-156l-186 372l186 371h156l-186 -371z" />
    <glyph glyph-name="guilsinglright" unicode="&#x203a;" horiz-adv-x="611" 
d="M144 913h156l186 -371l-186 -372h-156l187 372z" />
    <glyph glyph-name="fraction" unicode="&#x2044;" horiz-adv-x="385" 
d="M-153 0h-131l822 1434h131z" />
    <glyph glyph-name="uni2070" unicode="&#x2070;" horiz-adv-x="778" 
d="M205 1040q0 -206 112 -267q35 -18 73 -18t72 18t59 53q53 74 53 214t-52 214t-132 74q-127 0 -171 -161q-14 -55 -14 -127zM389 640q-133 0 -219 106q-85 106 -85 294q0 187 86 295t219 108t219 -108t85 -295t-86 -294q-86 -106 -219 -106z" />
    <glyph glyph-name="uni2074" unicode="&#x2074;" horiz-adv-x="629" 
d="M484 914h112v-109h-112v-155h-113v155h-336v86l247 542h125l-238 -519h202v209h113v-209z" />
    <glyph glyph-name="uni2075" unicode="&#x2075;" horiz-adv-x="644" 
d="M274 1020h-160l12 413h404v-110h-305l-7 -197h82q127 0 197 -63t70 -173t-74 -180t-193 -70q-154 0 -245 102l62 85q73 -78 180 -76q71 0 111 37t40 97t-41 98q-41 37 -133 37z" />
    <glyph glyph-name="uni2076" unicode="&#x2076;" horiz-adv-x="646" 
d="M169 916q0 -123 91 -158q59 -23 104 -6t65 37q42 42 42 110q0 105 -90 140q-27 11 -76 11t-93 -42q-43 -42 -43 -92zM345 1153q104 0 174 -71t71 -184t-75 -185q-76 -73 -193 -73t-194 73q-78 73 -78 171q0 97 54 190l210 359h135l-179 -290q28 10 75 10z" />
    <glyph glyph-name="uni2077" unicode="&#x2077;" horiz-adv-x="596" 
d="M50 1321v112h504v-97l-306 -686h-133l307 671h-372z" />
    <glyph glyph-name="uni2078" unicode="&#x2078;" horiz-adv-x="701" 
d="M350 1336q-29 0 -54 -8t-44 -22q-19 -15 -30 -38t-11 -53q0 -58 41 -90q61 -48 152 -23q86 26 86 114q0 87 -86 113q-25 7 -54 7zM240 963q-44 -33 -44 -78q0 -74 43 -106q43 -33 93 -34q82 -2 128 32t46 95q0 89 -96 116q-28 8 -77 8t-93 -33zM90 1227q0 99 74 158
q74 58 186 58t186 -59t74 -157q0 -129 -124 -181q139 -46 143 -186q0 -103 -80 -161q-80 -59 -199 -59q-120 0 -199 59q-78 59 -78 161q0 133 140 186q-123 54 -123 181z" />
    <glyph glyph-name="uni2079" unicode="&#x2079;" horiz-adv-x="646" 
d="M477 1184q0 34 -11 62t-31 47q-42 42 -109 42q-101 0 -140 -90q-11 -27 -11 -61q1 -70 43 -111q42 -40 92 -40q119 0 155 89q12 28 12 62zM300 930q-104 0 -174 70q-69 70 -70 185q-1 114 76 186t192 72q116 0 194 -72q78 -74 78 -171t-54 -191l-210 -359h-134l178 289
q-30 -9 -76 -9z" />
    <glyph glyph-name="uni2080" unicode="&#x2080;" horiz-adv-x="778" 
d="M390 319q-83 0 -131 -71q-54 -76 -54 -215q0 -208 112 -269q35 -18 73 -18q81 0 132 73q52 73 52 214q0 209 -112 268q-34 18 -72 18zM389 434q133 0 220 -107q86 -107 85 -295q-1 -187 -87 -294t-219 -107t-218 107t-85 294t85 294q86 108 219 108z" />
    <glyph glyph-name="uni2081" unicode="&#x2081;" horiz-adv-x="449" 
d="M313 -358h-114v625l-156 -66v117l270 115v-791z" />
    <glyph glyph-name="uni2082" unicode="&#x2082;" horiz-adv-x="614" 
d="M294 434q109 0 178 -67q62 -64 63 -154t-29 -145t-81 -112l-191 -204h321v-110h-473v94l266 294q69 76 69 162t-78 117q-25 10 -55 10q-78 0 -130 -55q-15 -16 -29 -34l-70 79q85 125 239 125z" />
    <glyph glyph-name="uni2083" unicode="&#x2083;" horiz-adv-x="618" 
d="M47 331q87 103 245 103t220 -127q18 -39 18 -88q0 -133 -119 -183q61 -24 98 -70t37 -107q0 -112 -76 -169t-170 -58q-169 -2 -257 96l66 82q70 -70 169 -70t136 70q12 24 12 54q0 84 -96 111q-28 8 -60 8h-93v107h93q98 0 131 67q11 22 11 63t-39 73t-117 32t-145 -77z
" />
    <glyph glyph-name="uni2084" unicode="&#x2084;" horiz-adv-x="629" 
d="M484 -94h112v-110h-112v-154h-113v154h-336v86l247 542h125l-238 -518h202v209h113v-209z" />
    <glyph glyph-name="uni2085" unicode="&#x2085;" horiz-adv-x="644" 
d="M274 11h-160l12 413h404v-110h-305l-7 -196h82q124 0 196 -63q71 -63 71 -174t-74 -180q-74 -70 -193 -70q-155 0 -245 103l62 85q74 -79 180 -77q71 0 111 37t40 97t-41 98q-41 37 -133 37z" />
    <glyph glyph-name="uni2086" unicode="&#x2086;" horiz-adv-x="646" 
d="M169 -94q0 -125 91 -156q28 -11 77 -11q49 1 80 31q54 52 54 120q0 105 -90 140q-27 11 -76 11t-93 -42q-43 -43 -43 -93zM520 72q69 -69 70 -182t-75 -186t-194 -73q-117 0 -194 74t-77 170t54 191l210 358h135l-179 -290q78 28 169 -9q47 -19 81 -53z" />
    <glyph glyph-name="uni2087" unicode="&#x2087;" horiz-adv-x="596" 
d="M50 312v112h504v-96l-306 -686h-133l307 670h-372z" />
    <glyph glyph-name="uni2088" unicode="&#x2088;" horiz-adv-x="701" 
d="M211 221q0 -45 11 -67t30 -37t44 -23t54 -8q60 0 100 32t40 75q0 45 -11 67q-33 68 -129 68q-59 0 -99 -32q-40 -31 -40 -75zM350 -12q-103 0 -142 -71q-12 -23 -12 -54t12 -55t33 -40t49 -24t60 -8q66 0 111 33t45 95q0 85 -96 116q-28 8 -60 8zM90 218q0 98 74 157
t185 59t186 -59t75 -157q0 -129 -124 -181q139 -46 143 -185q0 -104 -78 -161q-78 -58 -199 -59q-120 -1 -199 58q-80 59 -80 162q0 132 140 185q-123 54 -123 181z" />
    <glyph glyph-name="uni2089" unicode="&#x2089;" horiz-adv-x="646" 
d="M477 176q0 104 -90 139q-64 25 -120 2t-81 -80q-11 -28 -11 -79t42 -92t92 -41q121 0 156 89q12 28 12 62zM300 -79q-103 0 -173 71t-71 184t76 186q77 72 192 72q116 0 194 -72q78 -74 78 -170t-54 -192l-210 -358h-134l178 288q-30 -9 -76 -9z" />
    <glyph glyph-name="Euro" unicode="&#x20ac;" horiz-adv-x="1283" 
d="M372 715.5q0 -52.5 4 -100.5h586v-120h-570q37 -175 135.5 -271t251.5 -96q212 0 325 172l106 -92q-152 -224 -430 -224q-337 0 -432.5 195.5t-117.5 315.5h-153v120h137q-3 49 -3 101.5t3 101.5h-137v121h153q68 370 253 440.5t313 70.5t237.5 -60t178.5 -161l-109 -95
q-113 172 -324 172q-149 0 -248.5 -94.5t-138.5 -272.5h570v-121h-586q-4 -50 -4 -102.5z" />
    <glyph glyph-name="trademark" unicode="&#x2122;" horiz-adv-x="1308" 
d="M529 1336h-177v-484h-102v484h-178v98h457v-98zM1237 852h-100l-43 443l-148 -443h-93l-142 443l-46 -443h-94l55 582h139l141 -429l145 429h133z" />
    <glyph glyph-name="Omega" unicode="&#x2126;" horiz-adv-x="1601" 
d="M154 752q0 128 48 264t134 232q86 97 205 150t260 53q285 0 466 -204t181 -531q0 -275 -165 -466q-52 -59 -116 -103h327v-147h-539v135q151 55 241 208t88 364q0 268 -136 429q-136 162 -348 162q-211 0 -346 -161t-137 -430q0 -213 90 -365q90 -153 239 -207v-135h-538
v147h326q-280 192 -280 605z" />
    <glyph glyph-name="arrowleft" unicode="&#x2190;" horiz-adv-x="1798" 
d="M561 733h1044v-131h-1044q-82 0 -149 4q52 -46 134 -131l298 -315l-99 -87l-552 595l552 595l99 -87l-298 -316q-71 -74 -134 -131q67 4 149 4z" />
    <glyph glyph-name="arrowup" unicode="&#x2191;" horiz-adv-x="1798" 
d="M965 1049v-1044h-132v1044q0 88 5 149q-40 -45 -131 -133l-316 -299l-87 98l595 553l595 -553l-87 -98l-315 299q-85 79 -131 133q4 -65 4 -149z" />
    <glyph glyph-name="arrowright" unicode="&#x2192;" horiz-adv-x="1798" 
d="M1236 601h-1043v132h1043q84 0 149 -4q-62 55 -133 131l-299 316l99 87l553 -595l-553 -595l-99 87l299 315q67 71 133 130q-65 -4 -149 -4z" />
    <glyph glyph-name="arrowdown" unicode="&#x2193;" horiz-adv-x="1798" 
d="M833 372v1044h132v-1044q0 -84 -4 -149q55 62 131 133l315 299l87 -99l-595 -553l-595 553l87 99l316 -299q91 -88 131 -133q-5 61 -5 149z" />
    <glyph glyph-name="uni2196" unicode="&#x2196;" horiz-adv-x="1798" 
d="M506 877.5q0 -48.5 -2 -91.5l-11 -433l-132 8l30 811l812 30l8 -131l-435 -12q-43 -1 -90.5 -1t-95.5 4q57 -51 107 -103l740 -739l-95 -92l-737 737q-44 44 -102 109q3 -48 3 -96.5z" />
    <glyph glyph-name="uni2197" unicode="&#x2197;" horiz-adv-x="1798" 
d="M1098 1050q-48 0 -91 1l-435 12l9 131l812 -30l29 -811l-131 -9l-12 435q-2 43 -2 91t4 96q-33 -37 -56 -60.5t-46 -48.5l-739 -738l-93 94l762 761q27 27 46.5 44.5t37.5 34.5q-47 -3 -95 -3z" />
    <glyph glyph-name="uni2198" unicode="&#x2198;" horiz-adv-x="1798" 
d="M1277 467q0 48 2 91l12 433l131 -8l-29 -811l-812 -30l-9 131l435 13q43 1 90.5 1t96.5 -4q-53 46 -109 102l-738 738l93 94l739 -739q46 -44 102 -107q-4 48 -4 96z" />
    <glyph glyph-name="uni2199" unicode="&#x2199;" horiz-adv-x="1798" 
d="M507 457q0 -48 -4 -97q32 38 54 61l786 786l94 -93l-739 -738q-62 -62 -108 -103q114 7 187 2l434 -12l-8 -131l-812 30l-30 812l132 8l12 -434q2 -43 2 -91z" />
    <glyph glyph-name="partialdiff" unicode="&#x2202;" horiz-adv-x="1078" 
d="M222 475q0 -157 86 -255t220 -98t219.5 98.5t85.5 254.5t-85.5 255t-221.5 99q-133 0 -218.5 -98.5t-85.5 -255.5zM979 466q0 -84 -34 -177.5t-126 -199.5t-291 -106t-326 138t-127 351t119.5 353.5t295.5 140.5q177 0 287 -144q-125 334 -532 557l76 107
q283 -142 444.5 -379.5t201.5 -509.5q12 -47 12 -131z" />
    <glyph glyph-name="Delta" unicode="&#x2206;" horiz-adv-x="1289" 
d="M241 147h809l-405 1098zM1218 0h-1146v126l480 1310h186l480 -1310v-126z" />
    <glyph glyph-name="product" unicode="&#x220f;" horiz-adv-x="1329" 
d="M1151 -271h-156v1557h-661v-1557h-156v1705h973v-1705z" />
    <glyph glyph-name="summation" unicode="&#x2211;" horiz-adv-x="1219" 
d="M1074 1286h-757l505 -654v-79l-509 -677h763v-147h-970v126l557 734l-554 719v126h965v-148z" />
    <glyph glyph-name="minus" unicode="&#x2212;" 
d="M937 476h-776v130h776v-130z" />
    <glyph glyph-name="radical" unicode="&#x221a;" horiz-adv-x="1146" 
d="M583 -271h-187l-366 1024h164l295 -829l466 1551h158z" />
    <glyph glyph-name="infinity" unicode="&#x221e;" horiz-adv-x="1481" 
d="M1242 713.5q-56 63.5 -131 63.5t-126.5 -49.5t-167.5 -193.5q123 -153 172 -199t102 -46t88.5 16.5t77 64t41.5 164t-56 180zM239.5 354q55.5 -65 131.5 -65q75 0 123.5 45.5t85.5 91.5t87 108q-116 144 -167.5 193.5t-106.5 49.5q-54 0 -90 -16.5t-77.5 -64.5
t-41.5 -162.5t55.5 -179.5zM47 533.5q0 170.5 94 273t235 102.5t229.5 -109.5t134.5 -170.5q115 152 190 216t176 64q140 0 234.5 -103t94.5 -272.5t-94.5 -272.5t-235.5 -103t-230 109t-135 170q-112 -149 -188 -214t-176 -65q-141 0 -235 102.5t-94 273z" />
    <glyph glyph-name="integral" unicode="&#x222b;" horiz-adv-x="630" 
d="M55 -151q156 0 156 193v1076q0 239 105.5 286t176.5 47t128 -21l-41 -130q-32 10 -68 11q-83 0 -119.5 -50t-36.5 -143v-1076q0 -238 -106 -285t-178.5 -47t-125.5 21l42 130q38 -12 67 -12z" />
    <glyph glyph-name="approxequal" unicode="&#x2248;" 
d="M953 731q-97 -124 -233 -124q-70 0 -110 13t-75 28t-69 28t-82 13q-77 0 -154 -79l-85 84q96 124 243 124q88 0 173 -40t159 -41q74 0 148 79zM953 388q-97 -124 -233 -124q-70 0 -110 13t-75 28t-69 28t-82 13q-77 0 -154 -79l-85 84q96 124 243 124q88 -1 173 -41
t159 -40t148 79z" />
    <glyph glyph-name="notequal" unicode="&#x2260;" 
d="M937 301h-428l-102 -235h-131l103 235h-218v130h275l95 220h-370v130h428l102 236h130l-102 -236h218v-130h-275l-96 -220h371v-130z" />
    <glyph glyph-name="lessequal" unicode="&#x2264;" 
d="M201 57v130h713v-130h-713zM914 1070v-151l-567 -245l567 -243v-151l-713 326v136z" />
    <glyph glyph-name="greaterequal" unicode="&#x2265;" 
d="M906 57h-713v130h713v-130zM193 1070l713 -328v-136l-713 -326v151l567 243l-567 245v151z" />
    <glyph glyph-name="lozenge" unicode="&#x25ca;" horiz-adv-x="1409" 
d="M701 1274l-433 -556l439 -557l434 556zM777 0h-145l-543 717l543 717h145l543 -717z" />
    <glyph glyph-name="fi" unicode="&#xfb01;" horiz-adv-x="1341" 
d="M609 1377q-190 0 -188 -226v-112h381v-138h-381v-901h-152v901h-219v138h219v113q0 266 180 344q61 27 143 27q146 0 260 -72l-52 -128q-85 54 -191 54zM1108 1504q44 0 74 -30t30 -74t-30 -74t-74 -30t-74 30t-30 74t30 74t74 30zM1184 0h-151v1059h151v-1059z" />
    <glyph glyph-name="fl" unicode="&#xfb02;" horiz-adv-x="1388" 
d="M609 1377q-190 0 -188 -226v-112h381v-138h-381v-901h-152v901h-219v138h219v113q0 266 180 344q61 27 143 27q146 0 260 -72l-52 -128q-85 54 -191 54zM1200 0h-146l-2 1495h150z" />
    <glyph glyph-name="uniFEFF" unicode="&#xfeff;" horiz-adv-x="0" 
 />
    <glyph glyph-name="uni030C.alt001" horiz-adv-x="506" 
d="M178 1069l7 406h144l-35 -406h-116z" />
    <glyph glyph-name="uni0328.alt001" horiz-adv-x="949" 
d="M572 -216q0 -82 93 -82q47 0 92 50l73 -91q-78 -85 -188 -85q-139 0 -171.5 69.5t-32.5 112.5q0 150 221 303l47 -51q-134 -126 -134 -226z" />
    <glyph glyph-name="uni0328.alt002" horiz-adv-x="949" 
d="M512 -195q0 -46 31 -74.5t94 -28.5t119 54l73 -90q-86 -90 -203 -90t-184 57t-67 147q0 137 99 199.5t159 90.5l39 -50q-160 -102 -160 -215z" />
    <glyph glyph-name="uni0328.alt003" horiz-adv-x="949" 
d="M541 -216q0 -82 92 -82q46 0 92 50l74 -91q-78 -85 -189 -85q-140 0 -171.5 69.5t-31.5 114.5q0 89 72 159t218 142l44 -51q-200 -115 -200 -226z" />
    <glyph glyph-name="uni0328.alt004" horiz-adv-x="949" 
d="M702 39q-190 -118 -190 -228q0 -109 125 -109q63 0 119 54l73 -90q-86 -90 -203 -90t-184 57t-67 147q0 144 114 211.5t181 98.5z" />
    <glyph glyph-name="zero.numr" horiz-adv-x="778" 
d="M205 1040q0 -206 112 -267q35 -18 73 -18t72 18t59 53q53 74 53 214t-52 214t-132 74q-127 0 -171 -161q-14 -55 -14 -127zM389 640q-133 0 -219 106q-85 106 -85 294q0 187 86 295t219 108t219 -108t85 -295t-86 -294q-86 -106 -219 -106z" />
    <glyph glyph-name="one.numr" horiz-adv-x="449" 
d="M313 650h-114v626l-156 -67v118l270 115v-792z" />
    <glyph glyph-name="two.numr" horiz-adv-x="614" 
d="M298 1443q106 0 171 -66t66 -156t-29 -145t-81 -111l-191 -204h321v-111h-473v94l266 294q69 76 69 161t-78 119q-25 10 -55 10q-78 0 -130 -56q-15 -16 -29 -33l-70 79q86 125 243 125z" />
    <glyph glyph-name="three.numr" horiz-adv-x="618" 
d="M47 1339q88 104 245 104t220 -128q18 -39 18 -87q0 -132 -119 -184q61 -24 98 -70t37 -107q0 -109 -77 -168t-170 -59q-168 0 -256 96l66 82q69 -69 168 -69t137 69q12 24 12 54q0 58 -46 89q-46 32 -110 30h-93v108h93q98 0 131 67q11 22 11 63t-39 73t-103 31
q-94 0 -159 -77z" />
    <glyph glyph-name="four.numr" horiz-adv-x="629" 
d="M484 914h112v-109h-112v-155h-113v155h-336v86l247 542h125l-238 -519h202v209h113v-209z" />
    <glyph glyph-name="five.numr" horiz-adv-x="644" 
d="M274 1020h-160l12 413h404v-110h-305l-7 -197h82q127 0 197 -63t70 -173t-74 -180t-193 -70q-154 0 -245 102l62 85q73 -78 180 -76q71 0 111 37t40 97t-41 98q-41 37 -133 37z" />
    <glyph glyph-name="six.numr" horiz-adv-x="646" 
d="M169 916q0 -123 91 -158q59 -23 104 -6t65 37q42 42 42 110q0 105 -90 140q-27 11 -76 11t-93 -42q-43 -42 -43 -92zM345 1153q104 0 174 -71t71 -184t-75 -185q-76 -73 -193 -73t-194 73q-78 73 -78 171q0 97 54 190l210 359h135l-179 -290q28 10 75 10z" />
    <glyph glyph-name="seven.numr" horiz-adv-x="596" 
d="M50 1321v112h504v-97l-306 -686h-133l307 671h-372z" />
    <glyph glyph-name="eight.numr" horiz-adv-x="701" 
d="M350 1336q-29 0 -54 -8t-44 -22q-19 -15 -30 -38t-11 -53q0 -58 41 -90q61 -48 152 -23q86 26 86 114q0 87 -86 113q-25 7 -54 7zM240 963q-44 -33 -44 -78q0 -74 43 -106q43 -33 93 -34q82 -2 128 32t46 95q0 89 -96 116q-28 8 -77 8t-93 -33zM90 1227q0 99 74 158
q74 58 186 58t186 -59t74 -157q0 -129 -124 -181q139 -46 143 -186q0 -103 -80 -161q-80 -59 -199 -59q-120 0 -199 59q-78 59 -78 161q0 133 140 186q-123 54 -123 181z" />
    <glyph glyph-name="nine.numr" horiz-adv-x="646" 
d="M477 1184q0 34 -11 62t-31 47q-42 42 -109 42q-101 0 -140 -90q-11 -27 -11 -61q1 -70 43 -111q42 -40 92 -40q119 0 155 89q12 28 12 62zM300 930q-104 0 -174 70q-69 70 -70 185q-1 114 76 186t192 72q116 0 194 -72q78 -74 78 -171t-54 -191l-210 -359h-134l178 289
q-30 -9 -76 -9z" />
    <glyph glyph-name="zero.dnom" horiz-adv-x="778" 
d="M205 390q0 -204 112 -268q35 -18 73 -18q82 0 132 73q52 73 52 213t-52 214t-132 74q-127 0 -171 -161q-14 -55 -14 -127zM389 793q132 0 219 -108t86 -295t-86 -294q-85 -106 -219 -106q-133 0 -219 106q-85 106 -85 294q0 187 86 295t218 108z" />
    <glyph glyph-name="one.dnom" horiz-adv-x="449" 
d="M313 0h-114v626l-156 -67v118l270 115v-792z" />
    <glyph glyph-name="two.dnom" horiz-adv-x="614" 
d="M298 793q106 0 171 -66t66 -156t-29 -145t-81 -112l-191 -203h321v-111h-473v94l266 294q69 76 69 161t-78 119q-25 10 -55 10q-78 0 -130 -56q-15 -16 -29 -33l-70 79q86 125 243 125z" />
    <glyph glyph-name="three.dnom" horiz-adv-x="618" 
d="M47 689q88 104 245 104t220 -128q18 -39 18 -87q0 -132 -119 -184q61 -24 98 -70t37 -107q0 -109 -77 -168t-170 -59q-168 0 -256 96l66 82q68 -68 168 -69t137 69q12 24 12 54t-12 52q-37 67 -144 67h-93v108h93q98 0 131 67q11 22 11 62t-39 73q-39 32 -117 32
t-145 -77z" />
    <glyph glyph-name="four.dnom" horiz-adv-x="629" 
d="M484 264h112v-109h-112v-155h-113v155h-336v86l247 541h125l-238 -518h202v209h113v-209z" />
    <glyph glyph-name="five.dnom" horiz-adv-x="644" 
d="M297 100q71 0 111 38t40 97q-1 133 -174 135h-160l12 412h404v-109h-305l-7 -197h82q124 0 196 -63q71 -63 71 -173t-74 -180t-193 -70q-154 0 -245 102l62 85q72 -77 180 -77z" />
    <glyph glyph-name="six.dnom" horiz-adv-x="646" 
d="M169 248q0 -34 11 -61q35 -90 140 -90t140 90q11 28 11 62q0 33 -11 61q-35 88 -140 89q-105 0 -140 -89q-11 -28 -11 -62zM345 503q102 0 173 -71t72 -183t-75 -186q-76 -73 -192 -73q-117 0 -195 73t-78 170q0 96 54 191l210 358h135l-179 -289q28 10 75 10z" />
    <glyph glyph-name="seven.dnom" horiz-adv-x="596" 
d="M50 671v111h504v-96l-306 -686h-133l307 671h-372z" />
    <glyph glyph-name="eight.dnom" horiz-adv-x="701" 
d="M211 579q0 -45 11 -67t30 -37t44 -23t54 -8q60 0 100 32t40 75q0 45 -11 67q-33 68 -129 68q-59 0 -99 -32q-40 -31 -40 -75zM240 313q-44 -33 -44 -78t12 -69t33 -40t49 -24t60 -8q66 0 111 33t45 95q0 89 -96 116q-28 8 -78 8q-48 0 -92 -33zM90 577q0 99 74 158
q74 58 186 58t186 -59t74 -157q0 -127 -124 -182q139 -46 143 -185q0 -103 -80 -161q-80 -59 -199 -59q-120 0 -199 59q-78 59 -78 161q0 137 140 185q-123 54 -123 182z" />
    <glyph glyph-name="nine.dnom" horiz-adv-x="646" 
d="M477 534q0 105 -90 140q-28 11 -61 11q-101 0 -140 -90q-11 -27 -11 -61q0 -69 42 -110t108 -41q66 1 97 31q55 52 55 120zM300 280q-104 0 -174 70q-69 70 -70 184q-1 113 76 186t192 73q116 0 194 -73t78 -170q0 -96 -54 -192l-210 -358h-134l178 289q-30 -9 -76 -9z
" />
    <glyph glyph-name="space.frac" horiz-adv-x="95" 
 />
    <glyph glyph-name="zero.osf" horiz-adv-x="1234" 
d="M871.5 237q98.5 109 98.5 297q0 189 -98.5 298t-254.5 109t-254.5 -108t-98.5 -297t99 -298.5t254.5 -109.5t254 109zM981.5 937.5q141.5 -147.5 141.5 -402.5q0 -254 -141 -402.5t-364.5 -148.5t-365 149.5t-141.5 403t141.5 401t364.5 147.5t364.5 -147.5z" />
    <glyph glyph-name="one.osf" horiz-adv-x="619" 
d="M441 0h-148v873l-233 -85v154l381 148v-1090z" />
    <glyph glyph-name="two.osf" horiz-adv-x="991" 
d="M464 1085q182 0 291 -100.5t109 -266.5t-106 -259.5t-168 -137.5l-243 -176h566v-145h-803v125l396 303q204 138 204 290q0 93 -67 156t-195 63t-191.5 -60t-86.5 -86l-97 101q154 193 391 193z" />
    <glyph glyph-name="three.osf" horiz-adv-x="1006" 
d="M670 358q241 -88 241 -358q0 -82 -37 -158t-129.5 -150.5t-278.5 -74.5q-260 0 -411 166l93 106q126 -128 320 -128t241 99.5t47 164.5q0 123 -88.5 192.5t-217.5 69.5h-166v143h166q120 0 199 65.5t79 185.5t-79 189.5t-205 69.5q-168 0 -279 -141l-98 101
q134 185 389 185q190 0 309 -108t119 -283q0 -242 -214 -336z" />
    <glyph glyph-name="four.osf" horiz-adv-x="1049" 
d="M772 144h233v-144h-233v-367h-142v367h-585v120l448 947h155l-435 -923h417v342h142v-342z" />
    <glyph glyph-name="five.osf" horiz-adv-x="1050" 
d="M494 -239q141 0 221 81.5t80 209.5q0 212 -129 253.5t-226 41.5h-264l19 720h695v-142h-560l-14 -436h167q226 0 346.5 -117.5t120.5 -317.5t-127.5 -319t-325.5 -119q-266 0 -424 194l91 107q129 -156 330 -156z" />
    <glyph glyph-name="six.osf" horiz-adv-x="1062" 
d="M528.5 763q-67.5 0 -124.5 -23.5t-97.5 -66t-63.5 -101t-23 -128t23 -128t63.5 -101t97.5 -66t124.5 -23.5t124 23.5t97.5 66t63.5 101t22.5 128t-22.5 128t-63.5 101t-97.5 66t-124 23.5zM553 905q93 0 173 -34.5t138.5 -96t92 -146t33.5 -184t-34 -184t-95 -146.5
t-146 -96.5t-237.5 -34.5t-282 131t-129.5 330q0 142 87 298l392 692h174l-335 -567q76 38 169 38z" />
    <glyph glyph-name="seven.osf" horiz-adv-x="1001" 
d="M66 922v145h869v-123l-574 -1311h-166l570 1289h-699z" />
    <glyph glyph-name="eight.osf" horiz-adv-x="1115" 
d="M357.5 1236q-78.5 -71 -78.5 -187t77.5 -187t232 -71t200 99.5t45.5 159.5t-22 107.5t-79 98.5t-177 51t-198.5 -71zM338 197.5q88 -71.5 218 -71.5t218.5 71.5t88.5 192.5t-88.5 192.5t-218.5 71.5t-218 -71.5t-88 -192.5t88 -192.5zM344 724q-220 96 -220 348
q0 78 34.5 150t93 123t137.5 78.5t215 27.5t261 -108t125 -286q0 -179 -87.5 -246t-133.5 -87q173 -63 212 -168.5t39 -185.5t-37 -154.5t-100 -126t-147 -79t-230 -27.5t-279.5 109t-133.5 293t99.5 252t151.5 87z" />
    <glyph glyph-name="nine.osf" horiz-adv-x="1062" 
d="M535.5 304q67.5 0 124.5 24t97.5 66t63.5 100.5t23 128t-23 128.5t-63.5 101.5t-97.5 66t-124.5 23.5t-124 -23.5t-97.5 -66t-63.5 -101.5t-22.5 -128.5t22.5 -128t63.5 -101t97.5 -66t124 -23.5zM73 623q0 99 34 184t95.5 147t146 96.5t237 34.5t282 -131t129.5 -331
q0 -139 -87 -297l-392 -692h-173l334 566q-76 -37 -169 -37q-92 0 -172 34.5t-139 96t-92.5 146t-33.5 183.5z" />
    <glyph glyph-name="uni2007.tf" 
 />
    <glyph glyph-name="zero.lf" horiz-adv-x="1295" 
d="M648 1303q-78 0 -145.5 -38t-117.5 -112t-78.5 -183.5t-28.5 -253t28.5 -253t78.5 -183t117.5 -111.5t145.5 -38t145.5 38t118 111.5t79 183t28.5 253t-28.5 253t-79 183.5t-118 112t-145.5 38zM648.5 1450q113.5 0 210 -49t167.5 -143.5t111.5 -230.5t40.5 -310
t-40.5 -310.5t-111.5 -230.5t-167.5 -143t-210 -49t-210.5 49t-168 143t-111 230.5t-40 310.5t40 310t111 230.5t168 143.5t210.5 49z" />
    <glyph glyph-name="one.lf" horiz-adv-x="669" 
d="M481 0h-151v1223l-271 -120v160l422 187v-1450z" />
    <glyph glyph-name="two.lf" horiz-adv-x="1012" 
d="M777.5 1331.5q112.5 -118.5 112.5 -300.5q0 -181 -72.5 -282.5t-105.5 -142.5l-394 -461h612v-145h-813v123l483 573q135 162 135 320q0 195 -102.5 241t-162.5 46q-102 0 -168.5 -42.5t-125.5 -122.5l-99 98q64 93 156.5 153.5t262.5 60.5q169 0 281.5 -118.5z" />
    <glyph glyph-name="three.lf" horiz-adv-x="1021" 
d="M679 724q243 -90 243 -358q0 -82 -38 -158t-131.5 -150t-281.5 -74q-258 0 -412 163l94 108q127 -127 313 -127q128 0 212.5 68t84.5 193q0 126 -88.5 194.5t-218.5 68.5h-168v144h168q192 0 236 95.5t44 156.5q0 117 -79.5 187t-207.5 70q-129 0 -194.5 -56.5
t-87.5 -85.5l-97 104q137 183 391 183q196 0 314.5 -108t118.5 -286t-83 -245t-132 -87z" />
    <glyph glyph-name="four.lf" horiz-adv-x="1057" 
d="M794 450h217v-147h-217v-303h-145v303h-602v120l472 1010h162l-462 -983h430v384h145v-384z" />
    <glyph glyph-name="five.lf" horiz-adv-x="1061" 
d="M498 130q142 0 222 83.5t80 213.5q0 201 -128 243.5t-221 42.5h-271l20 721h696v-144h-560l-14 -433h172q222 0 341.5 -117.5t119.5 -315.5t-127 -319.5t-327 -121.5q-264 0 -424 192l89 110q128 -155 332 -155z" />
    <glyph glyph-name="six.lf" horiz-adv-x="1074" 
d="M228 445q0 -138 86 -228t221 -90t221 89.5t86 228.5t-86 228.5t-221 89.5t-221 -90t-86 -228zM560 906q92 0 172 -34.5t139 -96.5t92.5 -146.5t33.5 -183.5t-34 -183.5t-95.5 -146.5t-146.5 -96.5t-237.5 -34.5t-282 131t-129.5 330q0 142 87 298l392 691h175l-334 -566
q76 38 168 38z" />
    <glyph glyph-name="seven.lf" horiz-adv-x="1002" 
d="M72 1286v148h871v-125l-572 -1309h-170l568 1286h-697z" />
    <glyph glyph-name="eight.lf" horiz-adv-x="1162" 
d="M372.5 1238q-82.5 -68 -82.5 -189t81.5 -189.5t245.5 -68.5t210 97.5t46 161.5t-23 111t-82.5 96t-186 49t-209 -68zM350.5 585q-90.5 -69 -90.5 -194t91.5 -194.5t229.5 -69.5t229.5 69.5t91.5 193.5q0 125 -90.5 194.5t-230.5 69.5t-230.5 -69zM358 724
q-226 89 -226 349q0 80 35.5 152t96.5 122.5t143.5 76.5t174.5 26q193 0 321 -105t128 -288q0 -182 -89.5 -248t-136.5 -85q257 -92 257 -355q0 -82 -38 -157t-103.5 -125.5t-152.5 -77t-240 -26.5t-290 106.5t-137 292.5q0 250 257 342z" />
    <glyph glyph-name="nine.lf" horiz-adv-x="1073" 
d="M319.5 1217.5q-87.5 -89.5 -87.5 -227.5t86 -228.5t221 -90.5t221 89.5t86 228.5t-86 228.5t-219.5 89.5t-221 -89.5zM512 527q-87 0 -169 35t-174.5 131.5t-92.5 295.5t130 330t332.5 131t332.5 -131.5t130 -330.5q0 -143 -87 -298l-392 -690h-175l323 554
q-71 -27 -158 -27z" />
    <glyph glyph-name="zero.tosf" 
d="M219 582q0 -146 25.5 -222t70 -128.5t104.5 -79t167.5 -26.5t200 108t92.5 301t-93 300.5t-237 107.5t-237 -107.5t-93 -253.5zM896.5 937q135.5 -148 135.5 -403t-135.5 -403t-348.5 -148t-347.5 149t-134.5 403t134 402t347.5 148t349 -148z" />
    <glyph glyph-name="one.tosf" 
d="M527 144v737l-354 -111v155l503 165v-946l324 1v-145h-816v144h343z" />
    <glyph glyph-name="two.tosf" 
d="M528 1085q181 0 291 -100t110 -268q0 -167 -161 -307q-51 -46 -114 -89l-242 -176h566v-145h-804v125l396 303q163 111 193 219q11 35 11 75q0 86 -63 149q-70 66 -199 66t-227 -94q-28 -26 -51 -52l-97 101q154 193 391 193z" />
    <glyph glyph-name="three.tosf" 
d="M508 1085q190 0 309 -108t119 -283q0 -242 -214 -336q240 -88 242 -358q0 -82 -38 -159q-112 -224 -432 -224q-110 0 -213 44t-173 122l93 106q126 -128 321 -128t262 149q24 50 24 115q0 123 -87 192q-87 68 -219 70h-166v143h166q190 0 257 143q21 47 21 109t-22 110
q-67 149 -248 148q-182 0 -293 -141l-98 101q134 185 389 185z" />
    <glyph glyph-name="four.tosf" 
d="M812 144h232v-144h-232v-367h-142v367h-585v120l447 947h156l-435 -923h417v342h142v-342z" />
    <glyph glyph-name="five.tosf" 
d="M519 -239q141 0 221 82t80 209q0 212 -191 274q-67 22 -163 21h-264l18 720h695v-142h-560l-13 -436h167q227 0 347 -118t120 -317t-128 -318q-128 -120 -326 -120q-266 0 -424 194l91 107q129 -156 330 -156z" />
    <glyph glyph-name="six.tosf" 
d="M332 673q-86 -91 -86 -229t86 -228t220 -90q135 0 223 90t87 228t-87 229q-87 90 -221 90t-222 -90zM579 905q93 0 173 -35q161 -71 230 -242q34 -84 34 -184q0 -198 -130 -330q-130 -133 -332 -132t-333 132q-130 132 -130 330q0 138 87 298l392 692h174l-334 -567
q76 38 169 38z" />
    <glyph glyph-name="seven.tosf" 
d="M130 922v145h869v-123l-573 -1311h-167l570 1289h-699z" />
    <glyph glyph-name="eight.tosf" 
d="M559 1307q-120 0 -198 -70q-79 -70 -79 -187t77 -188t200 -71q184 0 256 150q22 49 22 109q0 118 -79 187q-79 70 -199 70zM560 654q-130 0 -219 -71q-88 -71 -88 -192t88 -193q89 -73 219 -72q130 0 218 71t88 193q0 121 -88 193q-88 71 -218 71zM1023 370
q0 -80 -37 -154t-100 -126q-132 -109 -328 -108t-329 111t-133 294t153 287q46 31 98 50q-95 41 -158 125q-62 84 -62 192q0 196 125 303t307 107t308 -108t126 -286t-134 -282q-40 -31 -87 -51q174 -64 231 -220q20 -54 20 -134z" />
    <glyph glyph-name="nine.tosf" 
d="M855 623q0 139 -87 230t-221 90q-135 -1 -222 -91t-86 -229t87 -229q88 -90 222 -90t221 90q86 90 86 229zM84 623q0 201 130 332t332 131q202 -1 331 -132t132 -331q0 -137 -87 -297l-393 -692h-173l334 566q-76 -37 -169 -37q-92 0 -172 35q-165 72 -231 242
q-34 84 -34 183z" />
    <glyph glyph-name="uni2007.tosf" 
 />
    <glyph glyph-name="parenleft.case" horiz-adv-x="748" 
d="M129 717q0 160 35 299q70 280 253 448q91 83 203 129l57 -136q-184 -82 -289 -282q-105 -202 -104 -459t105 -458t288 -282l-57 -136q-228 94 -360 328q-131 234 -131 549z" />
    <glyph glyph-name="parenright.case" horiz-adv-x="748" 
d="M129 1595q225 -93 358 -327q133 -235 133 -548q0 -314 -133 -549t-358 -329l-57 137q184 82 288 282t104 457t-105 459t-287 282z" />
    <glyph glyph-name="hyphen.case" horiz-adv-x="753" 
d="M629 649h-505v135h505v-135z" />
    <glyph glyph-name="bracketleft.case" horiz-adv-x="679" 
d="M608 -135h-430v1703h430v-136h-281v-1431h281v-136z" />
    <glyph glyph-name="bracketright.case" horiz-adv-x="679" 
d="M72 1568h430v-1703h-430v136h281v1431h-281v136z" />
    <glyph glyph-name="braceleft.case" horiz-adv-x="783" 
d="M654 1437q-148 0 -183 -132q-13 -45 -9 -104l6 -167q12 -253 -190 -317q202 -65 190 -318l-6 -167q-9 -172 110 -221q37 -14 82 -14h58v-131h-69q-250 0 -314 215q-20 70 -16 162l6 170q9 176 -121 223q-40 14 -90 14v133q160 0 201 132q14 45 10 106l-6 170
q-12 181 78 279q86 98 252 98h69v-131h-58z" />
    <glyph glyph-name="braceright.case" horiz-adv-x="782" 
d="M128 -3q146 0 184 132q13 45 9 104l-7 166q-12 252 191 318q-203 66 -191 317l7 167q9 174 -111 221q-37 14 -82 15h-57v131h68q250 0 315 -216q20 -70 15 -161l-6 -170q-12 -234 212 -238v-133q-160 0 -201 -132q-14 -45 -11 -105l6 -170q12 -182 -75 -279
q-87 -98 -255 -98h-68v131h57z" />
    <glyph glyph-name="guillemotleft.case" horiz-adv-x="983" 
d="M839 345h-156l-186 372l186 372h156l-187 -372zM467 345h-156l-186 372l186 372h156l-186 -372z" />
    <glyph glyph-name="uni00AD.case" horiz-adv-x="753" 
d="M629 649h-505v135h505v-135z" />
    <glyph glyph-name="guillemotright.case" horiz-adv-x="983" 
d="M144 1090h156l186 -372l-186 -372h-156l187 372zM516 1090h156l186 -372l-186 -372h-156l186 372z" />
    <glyph glyph-name="gravecomb.case" horiz-adv-x="4" 
d="M-257 1849h174l200 -310h-140z" />
    <glyph glyph-name="acutecomb.case" horiz-adv-x="4" 
d="M-249 1539l200 310h174l-236 -310h-138z" />
    <glyph glyph-name="uni0302.case" horiz-adv-x="4" 
d="M234 1540l-165 196l-166 -196h-144l223 297h174l223 -297h-145z" />
    <glyph glyph-name="tildecomb.case" horiz-adv-x="4" 
d="M-254 1676q85 120 196 120q75 0 124 -26q50 -26 74 -39q24 -12 56 -12q65 0 118 69l90 -79q-85 -120 -206 -120q-65 1 -114 27t-74 38t-56 13q-65 0 -119 -70z" />
    <glyph glyph-name="uni0304.case" horiz-adv-x="4" 
d="M-249 1750h557v-126h-557v126z" />
    <glyph glyph-name="uni0306.case" horiz-adv-x="4" 
d="M62 1667q154 0 199 193l115 -27q-30 -145 -111 -220t-203 -75t-204 75q-81 75 -111 220l115 27q46 -193 200 -193z" />
    <glyph glyph-name="uni0307.case" horiz-adv-x="4" 
d="M-184 1813q44 1 73 -29t29 -74t-30 -72q-28 -28 -72 -28t-73 28t-29 72t29 74t73 29z" />
    <glyph glyph-name="uni0308.case" horiz-adv-x="4" 
d="M222 1592q-42 0 -68 27q-28 27 -28 69t28 70t68 28q42 0 70 -28t28 -70t-28 -69t-70 -27zM-164 1786q42 0 69 -28q28 -28 28 -70t-28 -68q-27 -28 -69 -28t-69 27t-27 69t27 70t69 28z" />
    <glyph glyph-name="uni030A.case" horiz-adv-x="4" 
d="M79 1726q0 94 -76 129q-23 10 -49 10t-48 -10q-76 -34 -76 -116q0 -51 36 -88t88 -37t88 36t37 76zM-46 1525q-44 0 -84 17q-78 34 -116 114q-17 40 -17 84q-1 88 63 152t152 63q88 0 154 -62t66 -153q0 -90 -65 -153q-64 -62 -153 -62z" />
    <glyph glyph-name="uni030B.case" horiz-adv-x="4" 
d="M-243 1539l195 310h154l-207 -310h-142zM83 1539l207 310h160l-226 -310h-141z" />
    <glyph glyph-name="uni030C.case" horiz-adv-x="4" 
d="M-105 1835l165 -195l166 195h145l-223 -297h-175l-222 297h144z" />
    <glyph glyph-name="uni0326.case" horiz-adv-x="4" 
d="M-59 -89l-69 -362h-121l41 362h149z" />
    <glyph glyph-name="uni0327.case" horiz-adv-x="4" 
d="M-417 -331h-146l100 337l139 -1z" />
    <glyph glyph-name="uni0335.case" horiz-adv-x="4" 
d="M-111 652h-739v141h739v-141z" />
    <glyph glyph-name="endash.case" horiz-adv-x="1084" 
d="M978 650h-872v132h872v-132z" />
    <glyph glyph-name="emdash.case" horiz-adv-x="1474" 
d="M1421 650h-1367v132h1367v-132z" />
    <glyph glyph-name="guilsinglleft.case" horiz-adv-x="611" 
d="M467 345h-156l-186 372l186 372h156l-186 -372z" />
    <glyph glyph-name="guilsinglright.case" horiz-adv-x="611" 
d="M144 1090h156l186 -372l-186 -372h-156l187 372z" />
    <glyph glyph-name="a.ss01" horiz-adv-x="1228" 
d="M586 933q-74 0 -135.5 -30t-105 -83t-67 -127.5t-23.5 -163.5t24 -163t67.5 -127.5t105 -83t135 -29.5t134 29t104.5 82.5t68.5 127.5t24.5 164.5t-24.5 164.5t-68.5 127t-104.5 82.5t-134.5 29.5zM559 -18q-200 0 -329.5 153t-129.5 395t130 394.5t329 152.5
q120 0 208.5 -55t142.5 -148v185h150v-1059h-150v184q-119 -202 -351 -202z" />
    <glyph glyph-name="agrave.ss01" horiz-adv-x="1228" 
d="M586 933q-74 0 -135 -30q-126 -62 -172 -210q-24 -73 -24 -163t24 -164t68 -127q94 -113 240 -113t238 111q91 111 93 292q0 90 -25 165q-48 150 -172 210q-61 30 -135 29zM559 -18q-200 0 -329 153q-130 153 -130 395t129 394q129 153 330 153q121 0 209 -55t142 -148
v185h150v-1059h-150v184q-121 -204 -351 -202zM344 1512h174l200 -310h-139z" />
    <glyph glyph-name="aacute.ss01" horiz-adv-x="1228" 
d="M586 933q-74 0 -135 -30q-126 -62 -172 -210q-24 -73 -24 -163t24 -164t68 -127q94 -113 240 -113t238 111q91 111 93 292q0 90 -25 165q-48 150 -172 210q-61 30 -135 29zM559 -18q-200 0 -329 153q-130 153 -130 395t129 394q129 153 330 153q121 0 209 -55t142 -148
v185h150v-1059h-150v184q-121 -204 -351 -202zM484 1202l200 310h174l-235 -310h-139z" />
    <glyph glyph-name="acircumflex.ss01" horiz-adv-x="1228" 
d="M586 933q-74 0 -135 -30q-126 -62 -172 -210q-24 -73 -24 -163t24 -164t68 -127q94 -113 240 -113t238 111q91 111 93 292q0 90 -25 165q-48 150 -172 210q-61 30 -135 29zM559 -18q-200 0 -329 153q-130 153 -130 395t129 394q129 153 330 153q121 0 209 -55t142 -148
v185h150v-1059h-150v184q-121 -204 -351 -202zM771 1203l-166 196l-166 -196h-143l222 297h174l223 -297h-144z" />
    <glyph glyph-name="atilde.ss01" horiz-adv-x="1228" 
d="M586 933q-74 0 -135 -30q-126 -62 -172 -210q-24 -73 -24 -163t24 -164t68 -127q94 -113 240 -113t238 111q91 111 93 292q0 90 -25 165q-48 150 -172 210q-61 30 -135 29zM559 -18q-200 0 -329 153q-130 153 -130 395t129 394q129 153 330 153q121 0 209 -55t142 -148
v185h150v-1059h-150v184q-121 -204 -351 -202zM286 1339q85 120 196 120q76 -1 125 -27q48 -26 73 -38t55 -12q66 0 119 69l90 -79q-83 -118 -207 -120q-64 0 -113 26t-74 40q-25 12 -56 12q-64 0 -119 -69z" />
    <glyph glyph-name="adieresis.ss01" horiz-adv-x="1228" 
d="M586 933q-74 0 -135 -30q-126 -62 -172 -210q-24 -73 -24 -163t24 -164t68 -127q94 -113 240 -113t238 111q91 111 93 292q0 90 -25 165q-48 150 -172 210q-61 30 -135 29zM559 -18q-200 0 -329 153q-130 153 -130 395t129 394q129 153 330 153q121 0 209 -55t142 -148
v185h150v-1059h-150v184q-121 -204 -351 -202zM798 1449q42 0 70 -28q28 -27 27 -69q0 -42 -28 -69t-69 -27t-69 26q-28 28 -28 70t28 69q27 28 69 28zM412 1449q42 0 69 -28q28 -27 28 -69t-28 -69q-27 -27 -69 -27t-69 26q-27 28 -27 70t26 69q28 28 70 28z" />
    <glyph glyph-name="aring.ss01" horiz-adv-x="1228" 
d="M586 933q-74 0 -135 -30q-126 -62 -172 -210q-24 -73 -24 -163t24 -164t68 -127q94 -113 240 -113t238 111q91 111 93 292q0 90 -25 165q-48 150 -172 210q-61 30 -135 29zM559 -18q-200 0 -329 153q-130 153 -130 395t129 394q129 153 330 153q121 0 209 -55t142 -148
v185h150v-1059h-150v184q-121 -204 -351 -202zM605 1277q51 0 88 36t37 89q0 54 -26 80q-46 46 -99 46q-52 0 -88 -37t-36 -76t10 -62q33 -76 114 -76zM823 1403q0 -90 -65 -153q-64 -62 -152 -62t-152 62t-65 151q-1 88 63 152q64 65 152 65q89 0 154 -62q65 -63 65 -153z
" />
    <glyph glyph-name="amacron.ss01" horiz-adv-x="1228" 
d="M586 933q-74 0 -135 -30q-126 -62 -172 -210q-24 -73 -24 -163t24 -164t68 -127q94 -113 240 -113t238 111q91 111 93 292q0 90 -25 165q-48 150 -172 210q-61 30 -135 29zM559 -18q-200 0 -329 153q-130 153 -130 395t129 394q129 153 330 153q121 0 209 -55t142 -148
v185h150v-1059h-150v184q-121 -204 -351 -202zM327 1413h557v-126h-557v126z" />
    <glyph glyph-name="abreve.ss01" horiz-adv-x="1228" 
d="M586 933q-74 0 -135 -30q-126 -62 -172 -210q-24 -73 -24 -163t24 -164t68 -127q94 -113 240 -113t238 111q91 111 93 292q0 90 -25 165q-48 150 -172 210q-61 30 -135 29zM559 -18q-200 0 -329 153q-130 153 -130 395t129 394q129 153 330 153q121 0 209 -55t142 -148
v185h150v-1059h-150v184q-121 -204 -351 -202zM606 1330q154 0 199 193l115 -27q-30 -145 -111 -220t-203 -75t-204 75q-81 75 -111 220l115 27q46 -193 200 -193z" />
    <glyph glyph-name="aogonek.ss01" horiz-adv-x="1228" 
d="M586 933q-74 0 -135 -30q-126 -62 -172 -210q-24 -73 -24 -163t24 -164t68 -127q94 -113 240 -113t238 111q91 111 93 292q0 90 -25 165q-48 150 -172 210q-61 30 -135 29zM851 -216q0 -82 93 -82q47 0 91 50l74 -91q-78 -85 -188 -85q-141 0 -189 106q-15 33 -15 78
q0 129 169 234q12 7 24 15v175q-121 -204 -351 -202q-200 0 -329 153q-130 153 -130 395t129 394q129 153 330 153q121 0 209 -55t142 -148v185h150v-1059h-26q-183 -111 -183 -216z" />
    <glyph glyph-name="I.ss02" horiz-adv-x="684" 
d="M595 0h-506v128h175v1178h-175v128h506v-128h-175v-1178h175v-128z" />
    <glyph glyph-name="Igrave.ss02" horiz-adv-x="684" 
d="M595 0h-506v128h175v1178h-175v128h506v-128h-175v-1178h175v-128zM93 1849h174l200 -310h-139z" />
    <glyph glyph-name="Iacute.ss02" horiz-adv-x="684" 
d="M595 0h-506v128h175v1178h-175v128h506v-128h-175v-1178h175v-128zM207 1539l200 310h174l-236 -310h-138z" />
    <glyph glyph-name="Icircumflex.ss02" horiz-adv-x="684" 
d="M595 0h-506v128h175v1178h-175v128h506v-128h-175v-1178h175v-128zM506 1540l-166 196l-166 -196h-143l222 297h174l223 -297h-144z" />
    <glyph glyph-name="Idieresis.ss02" horiz-adv-x="684" 
d="M595 0h-506v128h175v1178h-175v128h506v-128h-175v-1178h175v-128zM630 1688q0 -42 -28 -68q-28 -28 -70 -28t-68 27q-28 27 -28 69t28 70t68 28q42 0 70 -28t28 -70zM146 1786q42 0 70 -28t28 -70t-28 -68q-28 -28 -70 -28t-69 27t-27 69t27 70t69 28z" />
    <glyph glyph-name="Imacron.ss02" horiz-adv-x="684" 
d="M595 0h-506v128h175v1178h-175v128h506v-128h-175v-1178h175v-128zM61 1750h557v-126h-557v126z" />
    <glyph glyph-name="Iogonek.ss02" horiz-adv-x="684" 
d="M283 -216q0 -82 92 -82q46 0 92 50l74 -91q-78 -85 -189 -85q-140 0 -189 108t47 235q29 37 52 57t28 24h-201v128h175v1178h-175v128h506v-128h-175v-1178h175v-128h-190q-122 -120 -122 -216z" />
    <glyph glyph-name="Idotaccent.ss02" horiz-adv-x="684" 
d="M595 0h-506v128h175v1178h-175v128h506v-128h-175v-1178h175v-128zM351 1813q44 1 73 -29t29 -74t-29 -72t-73 -28q-45 0 -73 28t-28 72t28 74t73 29z" />
    <glyph glyph-name="f_t" horiz-adv-x="1482" 
d="M420 1039h498v77q0 195 -96.5 230t-182 35t-152.5 -68t-67 -197v-77zM1202 -18q-132 0 -208 85t-76 259v575h-498v-901h-151v901h-219v138h219v80q0 191 112.5 297.5t286.5 106.5t287 -105.5t113 -298.5v-80h332v-138h-332v-570q0 -153 61 -178.5t96 -25.5q83 0 153 59
l59 -121q-103 -83 -235 -83z" />
    </font>
</defs>
</svg>
